<?xml version="1.0" standalone="no"?>
<!DOCTYPE svg PUBLIC "-//W3C//DTD SVG 20010904//EN"
 "http://www.w3.org/TR/2001/REC-SVG-20010904/DTD/svg10.dtd">
<svg version="1.0" xmlns="http://www.w3.org/2000/svg"
 width="269.000000pt" height="123.000000pt" viewBox="0 0 269.000000 123.000000"
 preserveAspectRatio="xMidYMid meet">
<metadata>
Created by potrace 1.10, written by Peter Selinger 2001-2011
</metadata>
<g transform="translate(0.000000,123.000000) scale(0.050000,-0.050000)"
fill="#4c5049" stroke="none">
<path d="M372 1978 c-303 -238 -88 -985 221 -769 95 67 126 401 37 401 -37 0
-40 -13 -40 -167 0 -191 -39 -254 -121 -195 -49 36 -58 605 -12 688 35 64 83
23 83 -69 0 -95 51 -187 103 -187 60 0 40 223 -27 294 -56 60 -170 62 -244 4z"/>
<path d="M951 1975 c-5 -25 -18 -85 -28 -135 -66 -311 -148 -570 -197 -625
-31 -33 -7 -35 468 -35 377 0 506 6 521 25 28 36 48 315 22 315 -48 0 -137
-118 -137 -183 -1 -91 -29 -136 -64 -101 -40 40 -35 572 6 664 18 39 33 78 35
87 2 10 -73 19 -167 20 -93 2 -167 -1 -164 -7 108 -178 122 -619 24 -753 -31
-43 -79 -13 -96 59 -6 24 -33 126 -61 226 -27 100 -55 235 -63 300 -21 189
-73 264 -99 143z m7 -458 c1 -37 -10 -55 -39 -63 -42 -11 -43 28 -5 186 14 57
39 -12 44 -123z m15 -191 c-21 -152 -77 -170 -102 -32 -11 59 -7 80 21 100 72
53 94 34 81 -68z"/>
<path d="M1788 2002 c-4 -5 4 -23 19 -40 49 -57 73 -165 73 -331 0 -142 -15
-231 -71 -406 -14 -45 -13 -45 218 -45 265 0 240 -20 263 215 13 139 2 150
-83 78 -41 -35 -57 -72 -66 -144 -13 -109 -51 -138 -81 -59 -54 142 -18 516
68 711 13 30 -311 49 -340 21z"/>
<path d="M2320 1999 c0 -9 8 -22 19 -28 35 -22 81 -228 81 -365 0 -120 -16
-209 -71 -381 -13 -44 -11 -45 149 -45 89 0 162 5 162 11 0 6 -15 39 -32 74
-70 133 -54 568 24 690 16 25 26 46 23 48 -23 12 -355 8 -355 -4z"/>
<path d="M4766 2005 l-264 -6 58 -92 c142 -224 174 -481 81 -639 -22 -39 -41
-74 -41 -79 0 -5 81 -9 180 -9 186 0 199 5 153 58 -117 137 -70 470 98 695 41
54 46 96 11 83 -7 -3 -131 -8 -276 -11z m106 -76 c14 -57 1 -243 -19 -263 -22
-22 -34 5 -46 110 -19 161 32 283 65 153z"/>
<path d="M2745 1895 c31 -79 41 -152 41 -295 1 -176 -10 -231 -75 -385 -14
-32 1 -35 157 -35 180 0 192 5 140 62 -18 20 -36 87 -42 156 l-11 120 70 34
c141 67 164 -17 72 -262 -20 -55 -37 -102 -37 -105 0 -3 78 -5 172 -5 l173 0
-33 49 c-83 127 -89 517 -10 682 72 149 147 9 150 -277 4 -354 4 -352 57 -405
39 -39 70 -49 150 -49 140 0 153 28 170 355 21 410 78 548 139 337 67 -228 58
-504 -20 -626 -15 -25 -28 -49 -28 -55 0 -33 459 -10 477 24 29 54 25 309 -3
292 -66 -37 -94 -81 -116 -179 -24 -106 -62 -139 -86 -76 -55 144 -23 387 38
288 21 -35 88 -22 111 22 31 58 10 105 -36 81 -122 -66 -162 32 -113 273 15
72 57 40 69 -52 12 -84 83 -184 131 -184 18 0 21 34 13 125 -18 215 74 195
-904 195 l-857 0 41 -105z m362 -10 c16 -52 35 -133 41 -180 l12 -85 -65 0
c-36 0 -87 -15 -113 -33 l-47 -33 13 118 c34 289 105 384 159 213z m714 -104
c50 -325 0 -610 -96 -548 -47 29 -53 659 -7 715 45 54 77 2 103 -167z"/>
<path d="M1935 1004 c-109 -14 -150 -145 -69 -221 63 -59 174 -54 174 8 0 19
-19 23 -68 15 -56 -9 -72 -3 -91 33 -34 62 5 101 101 101 43 0 78 9 78 19 0
30 -64 53 -125 45z"/>
<path d="M3987 1005 c-114 -18 -145 -187 -46 -242 61 -35 159 -17 159 28 0 24
-15 28 -66 18 -49 -9 -74 -3 -94 21 -41 50 -1 100 82 101 45 1 70 12 74 32 6
34 -41 52 -109 42z"/>
<path d="M500 970 c0 -21 21 -30 72 -30 76 0 78 -12 35 -165 -8 -28 3 -35 52
-35 60 0 81 25 41 50 -53 33 -22 150 40 150 40 0 60 10 60 30 0 24 -30 30
-150 30 -120 0 -150 -6 -150 -30z"/>
<path d="M839 962 c27 -50 27 -156 1 -172 -39 -24 -19 -50 40 -50 64 0 75 17
36 56 -17 17 -18 30 -3 45 15 15 37 3 73 -40 28 -33 61 -61 73 -61 30 0 26 21
-12 63 -26 29 -28 42 -8 66 59 71 19 121 -105 127 -111 6 -115 4 -95 -34z
m181 -42 c0 -11 -27 -20 -60 -20 -33 0 -60 9 -60 20 0 11 27 20 60 20 33 0 60
-9 60 -20z"/>
<path d="M1141 947 c-53 -68 -52 -98 8 -158 120 -120 297 28 200 167 -46 65
-153 60 -208 -9z m175 -70 c7 -60 -45 -90 -116 -67 -39 13 -56 88 -26 118 38
37 136 2 142 -51z"/>
<path d="M1415 977 c30 -30 33 -169 5 -187 -33 -20 -2 -50 51 -50 53 0 62 19
27 54 -26 26 -5 73 25 54 53 -33 120 13 113 78 -6 63 -7 64 -126 70 -96 5
-115 1 -95 -19z m185 -57 c0 -11 -27 -20 -60 -20 -33 0 -60 9 -60 20 0 11 27
20 60 20 33 0 60 -9 60 -20z"/>
<path d="M1680 981 c0 -10 9 -24 21 -31 23 -15 19 -148 -5 -163 -32 -19 -15
-47 29 -47 43 0 46 8 45 130 0 121 -3 130 -45 130 -25 0 -45 -8 -45 -19z"/>
<path d="M2180 965 c0 -20 -22 -69 -50 -109 -27 -41 -50 -83 -50 -95 0 -33 60
-25 73 10 13 34 113 24 163 -16 62 -51 55 23 -13 129 -73 115 -123 147 -123
81z"/>
<path d="M2400 981 c0 -10 9 -24 20 -31 28 -17 25 -137 -3 -165 -34 -34 16
-49 136 -41 70 4 97 14 97 36 0 23 -20 28 -85 23 l-85 -6 0 70 c0 39 9 76 20
83 39 24 19 50 -40 50 -33 0 -60 -8 -60 -19z"/>
<path d="M2793 910 c8 -55 4 -100 -10 -117 -28 -34 -10 -53 50 -53 48 0 63 28
27 50 -11 7 -20 32 -20 56 0 36 9 30 52 -33 l52 -77 43 62 c24 34 50 61 58 62
23 0 18 -49 -8 -75 -18 -18 -16 -27 10 -36 43 -17 111 7 78 28 -27 17 -37 137
-15 188 26 63 -49 40 -86 -26 -73 -132 -73 -132 -131 -32 -73 124 -117 125
-100 3z"/>
<path d="M3160 981 c0 -10 9 -24 20 -31 11 -7 20 -43 20 -80 0 -37 -9 -73 -20
-80 -51 -32 -11 -52 93 -46 137 7 178 56 47 56 -58 0 -81 8 -75 25 5 14 28 25
51 26 24 0 54 11 68 25 19 19 8 24 -50 24 -41 0 -74 9 -74 20 0 11 36 20 80
20 58 0 80 8 80 30 0 23 -27 30 -120 30 -66 0 -120 -8 -120 -19z"/>
<path d="M3420 991 c0 -5 24 -32 54 -60 l54 -50 -54 -57 c-54 -56 -54 -84 0
-84 15 0 36 23 46 50 10 28 28 50 39 50 11 0 35 -22 53 -50 18 -27 45 -50 60
-50 40 0 35 28 -12 70 -60 55 12 202 79 161 30 -19 27 -185 -4 -197 -17 -6
-14 -14 10 -24 51 -21 109 4 78 35 -28 28 -31 148 -3 165 47 29 13 50 -80 50
-78 0 -105 -9 -125 -40 -13 -22 -36 -40 -49 -40 -14 0 -34 18 -46 40 -18 34
-100 59 -100 31z"/>
<path d="M4227 969 c7 -17 -14 -66 -47 -113 -33 -45 -60 -90 -60 -99 0 -28 75
-19 86 10 11 29 126 22 145 -9 15 -23 69 -23 69 0 0 38 -147 242 -175 242 -18
0 -25 -12 -18 -31z"/>
<path d="M4456 976 c29 -29 32 -169 4 -186 -33 -20 -2 -50 51 -50 50 0 66 27
29 50 -11 7 -20 36 -20 65 0 53 1 53 86 -31 109 -107 114 -106 114 22 0 58 11
117 24 130 19 19 10 24 -40 24 -35 0 -64 -2 -64 -5 0 -3 8 -34 19 -70 24 -84
0 -82 -76 5 -36 41 -80 70 -106 70 -35 0 -40 -5 -21 -24z"/>
<path d="M1207 616 c-8 -13 -3 -27 9 -31 29 -10 32 -158 4 -175 -49 -30 -11
-50 98 -50 131 0 187 35 142 90 -14 17 -37 30 -52 30 -42 0 -33 34 12 46 44
11 55 71 15 83 -77 24 -215 28 -228 7z m203 -176 c7 -12 -16 -20 -59 -20 -39
0 -71 9 -71 20 0 11 26 20 59 20 32 0 64 -9 71 -20z"/>
<path d="M1527 595 c7 -25 13 -69 13 -98 0 -74 61 -142 127 -142 75 0 133 58
133 134 0 35 11 74 24 87 30 30 18 41 -60 56 -68 14 -96 -35 -34 -59 78 -30
13 -162 -74 -150 -51 8 -77 104 -38 143 41 41 23 74 -40 74 -55 0 -61 -5 -51
-45z"/>
<path d="M2071 621 c-6 -10 -3 -24 9 -31 11 -7 20 -41 19 -76 l-1 -64 -74 85
c-108 123 -134 114 -134 -45 0 -121 3 -130 45 -130 51 0 51 0 27 65 -36 94 8
101 85 15 88 -96 110 -91 103 25 -3 47 3 96 14 109 11 13 14 34 7 45 -16 26
-85 28 -100 2z"/>
<path d="M2306 610 c-158 -68 -100 -239 82 -241 l115 -1 -11 58 c-7 33 -12 67
-12 78 0 10 -38 16 -85 12 -87 -6 -111 -45 -30 -48 80 -2 98 -8 86 -26 -45
-73 -208 -7 -182 74 14 45 39 53 136 46 61 -5 78 45 23 66 -41 16 -47 15 -122
-18z"/>
<path d="M2640 595 c0 -25 -27 -85 -60 -135 -60 -89 -60 -90 -16 -97 25 -4 48
3 52 15 9 27 144 29 144 2 0 -11 18 -20 40 -20 54 0 52 9 -42 154 -88 133
-118 154 -118 81z"/>
<path d="M2868 616 c-8 -13 -4 -27 8 -31 31 -11 31 -170 0 -201 -19 -19 8 -24
120 -24 115 0 144 6 144 30 0 23 -24 30 -100 30 l-100 0 0 80 c0 44 9 80 20
80 11 0 20 14 20 30 0 36 -91 41 -112 6z"/>
<path d="M3209 591 c-59 -60 -63 -137 -9 -191 83 -83 240 -23 240 91 0 61 -82
149 -140 149 -23 0 -64 -22 -91 -49z m181 -71 c22 -35 -30 -100 -79 -100 -54
0 -117 52 -105 87 21 66 146 75 184 13z"/>
<path d="M3451 622 c-7 -11 9 -55 35 -96 27 -42 55 -96 62 -121 17 -52 48 -59
65 -14 10 26 15 26 36 -3 14 -19 30 -26 35 -16 89 154 133 248 120 256 -27 16
-58 -15 -96 -98 l-37 -80 -6 85 c-9 110 -65 121 -65 13 0 -89 -38 -83 -70 12
-24 70 -57 97 -79 62z"/>
<path d="M3910 626 c-99 -23 -91 -146 9 -146 18 0 51 -14 72 -30 36 -28 32
-30 -56 -26 -143 5 -161 -47 -24 -73 171 -32 218 82 64 157 l-105 51 95 0 c67
1 95 9 95 29 0 23 -67 56 -100 49 -5 -1 -28 -6 -50 -11z"/>
</g>
</svg>
