<?xml version="1.0" standalone="no"?>
<!DOCTYPE svg PUBLIC "-//W3C//DTD SVG 20010904//EN"
 "http://www.w3.org/TR/2001/REC-SVG-20010904/DTD/svg10.dtd">
<svg version="1.0" xmlns="http://www.w3.org/2000/svg"
 width="269.000000pt" height="123.000000pt" viewBox="0 0 269.000000 123.000000"
 preserveAspectRatio="xMidYMid meet">
<metadata>
Created by potrace 1.10, written by Peter Selinger 2001-2011
</metadata>
<g transform="translate(0.000000,123.000000) scale(0.100000,-0.100000)"
fill="#000000" stroke="none">
<path d="M1396 1055 c4 -8 8 -15 10 -15 2 0 4 7 4 15 0 8 -4 15 -10 15 -5 0
-7 -7 -4 -15z"/>
<path d="M748 1053 c6 -2 18 -2 25 0 6 3 1 5 -13 5 -14 0 -19 -2 -12 -5z"/>
<path d="M1648 1043 c7 -3 16 -2 19 1 4 3 -2 6 -13 5 -11 0 -14 -3 -6 -6z"/>
<path d="M819 1018 c7 -9 9 -23 5 -30 -6 -10 -4 -11 7 0 11 10 10 15 -6 30
-17 15 -18 15 -6 0z"/>
<path d="M857 1001 c-4 -17 -3 -21 5 -13 5 5 8 16 6 23 -3 8 -7 3 -11 -10z"/>
<path d="M1091 1004 c0 -11 3 -14 6 -6 3 7 2 16 -1 19 -3 4 -6 -2 -5 -13z"/>
<path d="M198 994 c-15 -8 -40 -35 -55 -61 -24 -41 -27 -57 -27 -132 -1 -69 4
-95 21 -131 40 -82 116 -104 168 -50 25 26 30 40 33 98 3 53 1 71 -12 81 -33
27 -48 -22 -26 -86 21 -58 -32 -125 -69 -89 -13 14 -16 41 -15 169 0 152 10
203 37 194 7 -2 15 -28 20 -57 8 -55 29 -90 54 -90 12 0 14 10 8 53 -10 77
-14 86 -45 102 -36 19 -57 18 -92 -1z m-5 -46 c-15 -19 -24 -50 -13 -43 5 3 9
-45 8 -120 0 -69 -3 -125 -7 -125 -17 1 -29 19 -36 55 -10 52 -6 147 7 162 5
7 7 16 4 21 -6 10 33 77 41 68 3 -3 1 -11 -4 -18z m114 -35 c3 -47 -7 -36 -13
13 -3 21 -1 35 2 31 4 -4 9 -24 11 -44z m-112 -273 c3 -5 1 -10 -4 -10 -6 0
-11 5 -11 10 0 6 2 10 4 10 3 0 8 -4 11 -10z"/>
<path d="M162 835 c0 -16 2 -22 5 -12 2 9 2 23 0 30 -3 6 -5 -1 -5 -18z"/>
<path d="M481 986 c-5 -13 -14 -49 -20 -80 -6 -31 -14 -64 -20 -74 -5 -9 -16
-52 -26 -95 -9 -42 -28 -93 -41 -112 l-23 -35 248 0 c187 0 251 3 259 13 12
15 22 157 11 157 -4 0 -20 -10 -34 -22 -19 -17 -28 -37 -33 -73 -5 -34 -12
-50 -22 -50 -20 0 -27 41 -29 158 -1 104 12 181 36 209 14 15 8 17 -72 20 -77
3 -115 -4 -84 -14 16 -5 39 -114 38 -183 0 -57 -19 -161 -34 -184 -3 -6 -12
-11 -20 -11 -17 0 -70 170 -85 275 -16 112 -19 125 -30 125 -6 0 -15 -11 -19
-24z m228 -23 c1 12 7 17 19 15 19 -4 19 -13 3 -103 -11 -61 -9 -230 3 -242 3
-3 6 -11 6 -17 0 -6 -5 -5 -12 2 -8 8 -15 9 -25 1 -9 -8 -13 -8 -13 0 0 6 -3
10 -7 10 -21 -3 -22 3 -8 31 16 31 23 227 10 263 -4 9 -4 29 0 45 l8 27 7 -25
c6 -18 8 -20 9 -7z m-206 -118 c-3 -11 -2 -16 3 -12 5 4 13 -11 19 -35 7 -29
7 -45 0 -50 -6 -5 -5 -8 3 -8 9 0 11 -7 7 -21 -5 -13 -3 -19 3 -15 5 3 12 -7
14 -22 3 -15 9 -36 13 -47 5 -11 5 -17 0 -13 -4 4 -14 3 -22 -3 -10 -9 -13 -8
-13 0 0 7 -4 9 -10 6 -8 -5 -17 86 -11 119 1 4 -5 33 -14 62 -9 30 -13 60 -9
66 4 7 3 8 -4 4 -7 -4 -12 -2 -12 3 0 6 5 11 10 11 6 0 10 10 11 23 1 15 4 11
10 -13 4 -19 6 -44 2 -55z m-17 -111 c0 -1 -13 -4 -28 -8 -27 -6 -39 6 -18 19
6 3 10 18 10 33 0 15 3 38 7 52 5 20 9 14 19 -35 6 -33 11 -60 10 -61z m361
-53 c1 -24 -4 -44 -13 -51 -11 -10 -14 -9 -14 9 0 11 5 21 11 21 5 0 7 5 4 10
-5 9 2 50 9 50 1 0 2 -18 3 -39z m-362 -18 c-8 -60 -21 -75 -41 -49 -30 41
-10 95 35 96 10 0 12 -11 6 -47z m-65 -44 c0 -6 -4 -7 -10 -4 -5 3 -10 11 -10
16 0 6 5 7 10 4 6 -3 10 -11 10 -16z"/>
<path d="M895 1001 c-2 -2 6 -16 17 -32 17 -23 23 -48 26 -115 5 -97 -12 -217
-34 -235 -29 -24 -11 -29 105 -29 136 0 136 0 132 91 -1 26 3 50 8 54 12 7 5
25 -10 25 -5 0 -22 -14 -38 -31 -22 -22 -31 -43 -33 -72 -4 -53 -28 -57 -41
-7 -14 53 -3 258 15 300 9 19 17 39 17 43 1 8 -157 16 -164 8z m92 -20 c10 9
13 7 14 -7 0 -11 3 -14 6 -6 2 6 9 12 13 12 5 0 3 -19 -5 -41 -8 -23 -15 -68
-15 -101 0 -37 -4 -57 -10 -53 -5 3 -10 -1 -10 -9 0 -9 4 -16 10 -16 10 0 11
-45 4 -105 -3 -22 -10 -31 -24 -32 -24 -2 -38 40 -21 61 6 7 9 22 5 32 -4 14
-3 16 4 5 7 -10 11 0 14 35 3 27 2 53 -1 59 -11 20 -8 51 7 68 8 9 12 20 9 24
-4 3 -7 1 -7 -5 0 -7 -4 -12 -10 -12 -5 0 -10 8 -10 18 0 10 -5 23 -11 29 -6
6 -8 21 -4 33 5 16 10 19 18 11 7 -7 14 -7 24 0z m130 -299 c1 -27 -2 -39 -12
-39 -7 0 -12 5 -10 11 2 6 6 23 9 39 8 37 11 34 13 -11z m-7 -62 c0 -5 -2 -10
-4 -10 -3 0 -8 5 -11 10 -3 6 -1 10 4 10 6 0 11 -4 11 -10z"/>
<path d="M1163 998 c-2 -5 0 -8 5 -8 16 0 42 -117 42 -188 0 -59 -9 -105 -35
-188 -6 -21 -3 -22 74 -23 45 -1 81 0 81 2 0 2 -7 19 -16 36 -35 70 -27 288
12 349 8 12 13 22 12 22 -40 5 -171 3 -175 -2z m73 -17 c11 9 14 8 14 -2 0
-10 3 -10 11 -2 6 6 17 9 24 7 10 -4 8 -22 -7 -77 -14 -54 -17 -88 -12 -134 4
-44 3 -63 -5 -63 -6 0 -11 -8 -10 -17 0 -11 3 -13 6 -5 8 21 25 13 18 -9 -4
-13 -1 -27 9 -38 15 -16 13 -17 -29 -20 -26 -1 -45 2 -45 9 0 5 12 11 28 11
23 2 24 2 5 6 -15 3 -23 12 -23 24 0 11 3 18 8 16 11 -8 6 193 -7 238 -11 41
-14 83 -4 57 4 -10 8 -10 19 -1z"/>
<path d="M1370 955 c30 -69 36 -179 15 -264 -9 -39 -21 -74 -26 -77 -26 -16 0
-24 76 -24 l85 0 -16 26 c-11 16 -17 47 -18 87 -1 61 0 62 33 79 39 20 61 14
61 -16 0 -19 -28 -117 -45 -158 -6 -16 1 -18 80 -18 75 0 86 2 75 14 -18 23
-40 115 -40 172 0 101 31 214 60 214 5 0 17 -15 27 -32 14 -26 19 -66 23 -181
5 -141 6 -150 29 -168 29 -24 103 -26 125 -3 21 21 24 39 29 179 5 116 22 195
44 202 21 7 48 -108 47 -207 0 -76 -4 -105 -21 -142 l-22 -48 114 0 c80 0 116
4 122 13 4 6 8 44 8 84 1 66 0 71 -17 62 -22 -12 -44 -54 -53 -102 -15 -80
-39 -49 -49 63 -4 50 -11 77 -21 83 -19 10 -20 28 -1 21 16 -6 26 24 26 86 1
98 30 121 42 34 5 -35 14 -55 33 -71 14 -13 30 -23 34 -23 10 0 1 120 -11 143
-8 16 -39 17 -438 17 l-429 0 19 -45z m105 3 c-5 -46 -20 -99 -34 -127 -7 -12
-10 -25 -7 -29 3 -3 6 0 6 7 0 7 4 10 10 6 5 -3 7 -12 4 -19 -3 -8 0 -17 6
-21 9 -6 9 -10 -1 -16 -24 -15 -42 -10 -36 10 2 10 -3 60 -13 110 -9 50 -13
94 -9 97 5 3 9 -5 10 -18 1 -23 1 -23 9 2 4 14 8 22 9 18 1 -4 11 -3 24 2 12
5 23 9 24 9 1 1 0 -14 -2 -31z m79 -15 c8 -27 18 -67 21 -90 l7 -43 -35 0
c-20 0 -42 -7 -51 -15 -23 -23 -26 -18 -21 33 9 84 16 117 31 140 21 32 31 28
48 -25z m89 -24 c-11 -33 -14 -70 -11 -146 3 -72 1 -100 -6 -95 -6 3 -3 -6 7
-21 24 -37 22 -44 -18 -45 -43 -2 -54 18 -31 53 11 16 12 25 5 25 -8 0 -8 4 1
15 7 9 10 18 7 22 -4 3 1 12 11 20 12 9 13 12 2 8 -13 -5 -16 9 -17 86 -1 65
-5 94 -15 100 -11 7 -11 9 1 9 7 0 11 6 7 15 -4 11 1 15 19 15 14 0 25 -7 28
-17 3 -13 5 -10 6 7 1 20 3 22 11 9 6 -10 4 -31 -7 -60z m257 39 c17 -45 25
-285 11 -321 -9 -23 -16 -28 -39 -25 -24 3 -28 8 -33 48 -9 62 0 258 12 298 6
17 17 32 24 32 7 0 19 -15 25 -32z m40 22 c0 -5 -5 -10 -11 -10 -5 0 -7 5 -4
10 3 6 8 10 11 10 2 0 4 -4 4 -10z m-118 -78 c-3 -42 -6 -111 -7 -152 0 -41
-4 -79 -10 -83 -6 -6 -6 -10 3 -14 6 -2 12 -11 12 -19 0 -12 -3 -12 -20 -2
-11 7 -18 19 -15 25 2 7 -1 13 -8 13 -8 0 -7 3 2 9 12 8 12 12 2 25 -7 8 -10
20 -6 27 11 17 11 108 1 102 -9 -6 -4 45 9 82 6 16 5 17 -4 5 -8 -12 -11 -8
-11 20 0 32 3 35 30 37 l29 2 -7 -77z m245 66 c11 27 33 12 33 -23 0 -29 -3
-33 -17 -28 -17 6 -17 6 -2 -9 17 -17 15 -61 -2 -84 -5 -6 -4 -26 1 -45 13
-46 13 -110 0 -89 -5 8 -10 10 -10 4 0 -6 7 -17 15 -24 9 -7 13 -20 10 -28 -3
-9 -1 -18 5 -22 6 -4 -2 -7 -19 -8 -38 -1 -46 22 -27 77 11 32 12 59 5 123 -5
45 -7 88 -5 95 3 7 2 13 -3 13 -11 0 -22 40 -14 53 3 5 10 3 15 -4 7 -11 11
-11 15 -1z m127 -27 c-1 -19 2 -28 9 -24 6 3 7 1 3 -5 -15 -25 -29 -12 -23 23
3 21 2 33 -4 30 -5 -4 -9 -1 -9 5 0 7 6 10 13 7 6 -2 11 -18 11 -36z m-257 -3
c-3 -8 -6 -5 -6 6 -1 11 2 17 5 13 3 -3 4 -12 1 -19z m-480 -216 c1 -9 3 -35
4 -57 2 -22 7 -43 13 -47 6 -4 -6 -8 -26 -8 -24 0 -38 5 -38 13 0 8 -4 7 -11
-3 -8 -12 -9 -9 -4 10 4 14 7 33 6 42 0 10 4 20 10 23 5 4 9 14 9 23 0 23 35
26 37 4z m753 -32 c0 -5 -5 -10 -11 -10 -5 0 -7 5 -4 10 3 6 8 10 11 10 2 0 4
-4 4 -10z m-4 -66 c-9 -23 -23 -16 -23 11 0 13 3 22 8 19 5 -3 10 1 10 8 1 7
3 5 6 -5 3 -10 2 -25 -1 -33z"/>
<path d="M1445 940 c3 -5 8 -10 11 -10 2 0 4 5 4 10 0 6 -5 10 -11 10 -5 0 -7
-4 -4 -10z"/>
<path d="M1600 850 c0 -5 5 -10 11 -10 5 0 7 5 4 10 -3 6 -8 10 -11 10 -2 0
-4 -4 -4 -10z"/>
<path d="M1591 634 c0 -11 3 -14 6 -6 3 7 2 16 -1 19 -3 4 -6 -2 -5 -13z"/>
<path d="M2062 640 c0 -14 2 -19 5 -12 2 6 2 18 0 25 -3 6 -5 1 -5 -13z"/>
<path d="M2254 989 c29 -17 87 -154 93 -219 6 -59 -19 -160 -38 -160 -5 0 -9
-4 -9 -10 0 -6 37 -10 90 -10 82 0 112 9 76 23 -27 10 -50 177 -28 203 5 5 19
35 32 68 13 32 34 71 48 87 l24 29 -154 0 c-115 -1 -148 -3 -134 -11z m184
-45 c5 -55 -7 -129 -19 -117 -13 13 -23 105 -15 138 10 38 30 25 34 -21z
m-119 19 c1 20 41 24 41 5 0 -9 4 -8 11 2 8 11 9 -3 5 -52 -3 -38 -1 -68 3
-68 10 0 23 -35 26 -70 2 -22 5 -49 20 -146 3 -17 -2 -21 -26 -22 -18 0 -27 3
-23 10 4 6 -3 5 -16 -2 -20 -11 -21 -10 -10 11 13 22 22 105 20 167 0 18 -16
62 -35 98 -19 36 -35 71 -34 77 0 7 4 3 9 -8 7 -17 9 -17 9 -2z m148 -15 c-3
-8 -6 -5 -6 6 -1 11 2 17 5 13 3 -3 4 -12 1 -19z"/>
<path d="M2350 920 c0 -5 5 -10 11 -10 5 0 7 5 4 10 -3 6 -8 10 -11 10 -2 0
-4 -4 -4 -10z"/>
<path d="M2384 659 c-4 -7 -3 -9 4 -5 5 3 13 0 15 -6 4 -9 6 -10 6 -1 1 17
-16 25 -25 12z"/>
<path d="M582 970 c0 -14 2 -19 5 -12 2 6 2 18 0 25 -3 6 -5 1 -5 -13z"/>
<path d="M1101 954 c0 -11 3 -14 6 -6 3 7 2 16 -1 19 -3 4 -6 -2 -5 -13z"/>
<path d="M875 910 c3 -5 8 -10 11 -10 2 0 4 5 4 10 0 6 -5 10 -11 10 -5 0 -7
-4 -4 -10z"/>
<path d="M891 864 c0 -11 3 -14 6 -6 3 7 2 16 -1 19 -3 4 -6 -2 -5 -13z"/>
<path d="M2185 819 c-4 -6 -17 -8 -29 -5 -11 3 -28 1 -36 -4 -11 -7 -10 -12
11 -29 32 -28 61 -23 70 11 7 28 -4 47 -16 27z"/>
<path d="M2246 793 c-6 -14 -5 -15 5 -6 7 7 10 15 7 18 -3 3 -9 -2 -12 -12z"/>
<path d="M1361 784 c0 -11 3 -14 6 -6 3 7 2 16 -1 19 -3 4 -6 -2 -5 -13z"/>
<path d="M2270 775 c-11 -13 -10 -14 4 -9 9 3 16 10 16 15 0 13 -6 11 -20 -6z"/>
<path d="M611 764 c0 -11 3 -14 6 -6 3 7 2 16 -1 19 -3 4 -6 -2 -5 -13z"/>
<path d="M1531 734 c0 -11 3 -14 6 -6 3 7 2 16 -1 19 -3 4 -6 -2 -5 -13z"/>
<path d="M2265 730 c-3 -5 -1 -10 4 -10 6 0 11 5 11 10 0 6 -2 10 -4 10 -3 0
-8 -4 -11 -10z"/>
<path d="M115 609 c-4 -6 -5 -12 -2 -15 2 -3 7 2 10 11 7 17 1 20 -8 4z"/>
<path d="M1925 570 c-3 -5 -1 -10 4 -10 6 0 11 5 11 10 0 6 -2 10 -4 10 -3 0
-8 -4 -11 -10z"/>
<path d="M2220 566 c0 -2 7 -7 16 -10 8 -3 12 -2 9 4 -6 10 -25 14 -25 6z"/>
<path d="M218 533 c6 -2 18 -2 25 0 6 3 1 5 -13 5 -14 0 -19 -2 -12 -5z"/>
<path d="M1046 502 c-2 -4 0 -14 6 -22 8 -12 9 -12 5 2 -3 9 -1 19 6 22 9 3 9
5 0 5 -6 1 -14 -3 -17 -7z"/>
<path d="M1300 498 c0 -9 5 -20 10 -23 13 -8 13 5 0 25 -8 13 -10 13 -10 -2z"/>
<path d="M1360 500 c-8 -5 -12 -12 -9 -15 4 -3 12 1 19 10 14 17 11 19 -10 5z"/>
<path d="M257 494 c-13 -13 5 -24 37 -24 31 0 32 -1 28 -35 -2 -19 -8 -38 -13
-41 -18 -11 -8 -21 21 -21 17 0 30 4 30 9 0 4 -4 8 -10 8 -5 0 -10 19 -10 43
0 43 1 43 30 39 23 -3 30 0 30 12 0 13 -12 16 -68 16 -38 0 -72 -3 -75 -6z"/>
<path d="M418 488 c16 -16 16 -98 0 -98 -21 0 1 -13 27 -16 29 -3 30 -1 13 26
-22 34 1 35 36 1 19 -18 39 -30 45 -26 8 4 2 14 -15 27 -22 18 -24 22 -10 30
21 12 21 54 0 62 -9 3 -36 6 -62 6 -36 0 -43 -3 -34 -12z m102 -28 c0 -5 -16
-10 -35 -10 -19 0 -35 5 -35 10 0 6 16 10 35 10 19 0 35 -4 35 -10z"/>
<path d="M571 474 c-26 -32 -26 -46 -3 -72 26 -31 53 -34 90 -12 39 24 42 57
9 88 -32 30 -71 28 -96 -4z m79 -4 c13 0 18 -36 8 -54 -13 -23 -65 -21 -78 4
-8 16 -6 24 11 41 11 11 27 18 36 15 8 -3 18 -6 23 -6z"/>
<path d="M708 488 c14 -14 16 -98 2 -98 -5 0 -10 -4 -10 -8 0 -5 14 -9 30 -10
30 -1 40 11 20 23 -5 3 -10 13 -10 21 0 10 7 13 25 8 31 -8 55 10 55 41 0 27
-17 35 -78 35 -36 0 -43 -3 -34 -12z m102 -28 c0 -5 -16 -10 -35 -10 -19 0
-35 5 -35 10 0 6 16 10 35 10 19 0 35 -4 35 -10z"/>
<path d="M840 490 c0 -5 5 -10 10 -10 6 0 10 -18 10 -39 0 -22 -4 -43 -10 -46
-18 -11 -11 -23 13 -21 20 1 22 6 22 63 0 59 -2 63 -22 63 -13 0 -23 -4 -23
-10z"/>
<path d="M932 477 c-48 -51 -9 -106 71 -99 9 1 17 8 17 16 0 9 -12 13 -36 12
-24 -1 -40 5 -47 16 -17 26 13 52 57 51 26 -1 33 3 29 13 -9 23 -67 17 -91 -9z"/>
<path d="M1094 483 c4 -9 3 -19 -2 -22 -16 -11 -52 -78 -45 -84 11 -12 23 -8
23 8 0 11 11 15 39 15 25 0 41 -5 45 -15 7 -18 26 -20 26 -3 0 18 -70 118 -82
118 -6 0 -7 -8 -4 -17z m46 -65 c0 -5 -39 -5 -59 1 -2 0 4 10 14 21 17 19 19
19 31 2 7 -9 14 -20 14 -24z"/>
<path d="M1200 490 c0 -5 5 -10 10 -10 14 0 12 -74 -2 -88 -14 -14 -16 -13 59
-14 34 0 59 4 61 11 2 7 -13 11 -43 11 l-48 0 5 50 c5 47 4 50 -18 50 -13 0
-24 -4 -24 -10z"/>
<path d="M1390 491 c0 -6 4 -12 9 -16 15 -9 7 -75 -9 -85 -17 -11 -16 -11 23
-16 27 -3 37 9 17 21 -5 3 -10 18 -10 33 0 24 2 23 27 -16 l27 -41 25 37 c14
20 26 31 29 24 4 -12 2 -19 -9 -46 -5 -12 38 -18 45 -7 3 5 -1 11 -9 15 -17 6
-21 71 -5 81 15 9 12 25 -4 25 -8 0 -27 -22 -43 -49 l-28 -49 -30 49 c-27 44
-55 64 -55 40z"/>
<path d="M1580 490 c0 -5 5 -10 10 -10 6 0 10 -20 10 -45 0 -25 -4 -45 -10
-45 -5 0 -10 -3 -10 -7 0 -5 27 -6 60 -5 67 4 83 22 20 22 -30 0 -40 4 -40 16
0 11 8 15 32 12 19 -2 33 2 35 10 3 8 -8 12 -36 12 -23 0 -41 5 -41 10 0 6 20
10 45 10 33 0 45 4 45 15 0 12 -13 15 -60 15 -33 0 -60 -4 -60 -10z"/>
<path d="M1737 471 l31 -29 -24 -23 c-24 -23 -32 -49 -15 -49 5 0 20 14 32 31
l22 32 18 -22 c10 -12 19 -27 21 -33 3 -7 10 -8 17 -4 9 6 5 16 -16 38 l-28
29 28 21 c29 21 35 38 13 38 -7 0 -21 -11 -30 -25 -18 -27 -42 -24 -51 6 -4
11 -15 19 -28 19 -20 -1 -20 -3 10 -29z"/>
<path d="M1876 472 c10 -21 11 -37 4 -63 -6 -18 -10 -35 -10 -36 0 -2 9 -2 20
0 22 4 40 17 22 17 -7 0 -12 17 -12 45 0 25 5 45 10 45 6 0 10 5 10 10 0 6
-13 10 -29 10 -29 0 -29 0 -15 -28z"/>
<path d="M1961 479 c-50 -47 3 -129 65 -100 37 16 28 30 -15 24 -32 -4 -41 -2
-50 14 -18 35 31 72 66 50 14 -9 27 8 18 23 -11 17 -60 11 -84 -11z"/>
<path d="M2116 486 c3 -8 -8 -35 -25 -60 -17 -24 -31 -47 -31 -49 0 -10 34 0
38 11 6 18 82 15 82 -3 0 -8 7 -15 15 -15 8 0 15 2 15 5 0 15 -77 125 -87 125
-7 0 -10 -7 -7 -14z m54 -67 c0 -4 -13 -7 -30 -7 -34 1 -34 1 -18 28 11 18 14
18 30 3 10 -9 18 -20 18 -24z"/>
<path d="M2230 491 c0 -6 4 -12 9 -15 5 -3 8 -14 6 -24 -15 -74 -14 -78 10
-80 28 -2 42 13 20 22 -9 3 -15 18 -15 38 l0 32 43 -47 c23 -26 45 -47 47 -47
3 0 7 21 8 47 1 25 4 55 8 65 4 15 0 18 -27 18 -29 0 -31 -1 -18 -17 8 -10 16
-31 17 -48 l3 -30 -44 48 c-41 44 -67 59 -67 38z"/>
<path d="M1275 470 c3 -5 8 -10 11 -10 2 0 4 5 4 10 0 6 -5 10 -11 10 -5 0 -7
-4 -4 -10z"/>
<path d="M1350 445 c13 -14 26 -25 28 -25 3 0 -5 11 -18 25 -13 14 -26 25 -28
25 -3 0 5 -11 18 -25z"/>
<path d="M245 429 c-4 -6 -4 -13 -1 -16 3 -4 6 -1 6 6 0 8 6 11 16 7 8 -3 12
-2 9 4 -8 13 -22 13 -30 -1z"/>
<path d="M395 430 c3 -5 8 -10 11 -10 2 0 4 5 4 10 0 6 -5 10 -11 10 -5 0 -7
-4 -4 -10z"/>
<path d="M806 395 c-11 -8 -15 -15 -9 -15 6 0 16 7 23 15 16 19 11 19 -14 0z"/>
<path d="M1770 376 c0 -2 7 -7 16 -10 8 -3 12 -2 9 4 -6 10 -25 14 -25 6z"/>
<path d="M2356 355 c-11 -8 -15 -15 -9 -15 7 0 15 5 18 10 4 6 11 7 17 4 7 -4
8 -2 4 4 -9 14 -7 15 -30 -3z"/>
<path d="M824 352 c3 -5 0 -13 -6 -15 -9 -4 -10 -6 -1 -6 17 -1 25 16 12 25
-7 4 -9 3 -5 -4z"/>
<path d="M1015 351 c-3 -5 -2 -12 3 -15 5 -3 9 1 9 9 0 17 -3 19 -12 6z"/>
<path d="M1372 346 c13 -15 21 -17 45 -7 l28 11 -28 -5 c-16 -3 -36 0 -45 7
-16 11 -16 11 0 -6z"/>
<path d="M2145 350 c-3 -5 -1 -10 4 -10 6 0 11 5 11 10 0 6 -2 10 -4 10 -3 0
-8 -4 -11 -10z"/>
<path d="M748 343 c7 -3 16 -2 19 1 4 3 -2 6 -13 5 -11 0 -14 -3 -6 -6z"/>
<path d="M887 339 c7 -7 15 -10 18 -7 3 3 -2 9 -12 12 -14 6 -15 5 -6 -5z"/>
<path d="M1670 346 c0 -2 7 -7 16 -10 8 -3 12 -2 9 4 -6 10 -25 14 -25 6z"/>
<path d="M1925 340 c-3 -6 1 -7 9 -4 18 7 21 14 7 14 -6 0 -13 -4 -16 -10z"/>
<path d="M2060 339 c0 -5 5 -7 10 -4 6 3 10 8 10 11 0 2 -4 4 -10 4 -5 0 -10
-5 -10 -11z"/>
<path d="M1265 320 c3 -5 8 -10 11 -10 2 0 4 5 4 10 0 6 -5 10 -11 10 -5 0 -7
-4 -4 -10z"/>
<path d="M600 310 c0 -3 5 -11 11 -17 16 -16 16 -78 0 -97 -12 -14 -8 -16 41
-16 33 0 62 6 74 15 19 15 19 15 0 30 -11 8 -26 15 -33 15 -23 0 -14 18 12 24
31 8 33 34 3 40 -38 8 -108 12 -108 6z m100 -30 c0 -5 -6 -10 -14 -10 -8 0
-21 -3 -30 -6 -11 -4 -16 -1 -16 10 0 11 9 16 30 16 17 0 30 -4 30 -10z m6
-61 c3 -5 -11 -9 -30 -9 -23 0 -36 5 -36 13 0 15 56 11 66 -4z"/>
<path d="M787 312 c-21 -3 -27 -8 -23 -19 3 -8 6 -28 6 -44 0 -37 32 -69 69
-69 37 0 61 31 61 77 0 18 5 33 10 33 6 0 10 6 10 13 0 7 -14 12 -35 13 -38 1
-43 -7 -19 -26 23 -20 14 -71 -14 -81 -17 -6 -27 -4 -42 11 -24 24 -25 43 -4
64 21 22 15 32 -19 28z"/>
<path d="M940 305 c0 -8 5 -15 10 -15 6 0 8 -10 6 -22 -17 -85 -17 -88 9 -88
25 0 33 14 15 25 -10 6 -15 65 -6 65 3 0 25 -21 50 -47 l46 -48 0 56 c0 45 4
58 18 64 13 6 9 9 -18 16 -42 9 -48 5 -27 -19 10 -10 17 -32 17 -48 l-1 -29
-39 42 c-49 52 -80 71 -80 48z"/>
<path d="M1321 302 c3 -18 -24 -76 -49 -104 -14 -16 -13 -18 6 -18 13 0 22 6
22 14 0 19 77 18 84 -1 6 -14 36 -18 36 -5 -1 4 -14 25 -30 47 -17 22 -33 48
-36 57 -8 24 -36 33 -33 10z m49 -72 c0 -4 -13 -7 -30 -7 -35 0 -36 4 -13 29
16 18 18 18 30 2 7 -10 13 -21 13 -24z"/>
<path d="M1457 312 c-24 -3 -26 -6 -16 -18 16 -20 16 -79 -1 -99 -12 -14 -7
-16 55 -13 44 2 70 8 73 16 2 8 -11 12 -47 12 l-51 0 0 39 c0 22 5 41 12 43
22 8 3 23 -25 20z"/>
<path d="M1629 308 c-16 -5 -32 -22 -39 -39 -11 -26 -10 -34 7 -57 29 -39 74
-41 102 -6 24 30 26 52 8 75 -21 27 -50 37 -78 27z m45 -28 c46 -17 27 -70
-24 -70 -46 0 -69 48 -32 69 22 13 25 13 56 1z"/>
<path d="M1722 312 c23 -53 64 -131 69 -131 4 -1 10 9 13 22 l6 22 13 -22 c12
-21 14 -19 49 42 20 36 33 67 29 69 -12 8 -25 -7 -44 -47 -21 -45 -40 -40 -31
9 5 28 3 34 -10 34 -14 0 -16 -6 -11 -34 12 -62 -26 -58 -42 4 -6 25 -20 40
-36 40 -5 0 -7 -3 -5 -8z"/>
<path d="M1130 290 c-55 -55 23 -143 90 -100 9 6 17 5 22 -3 11 -18 10 16 -2
47 -8 21 -16 26 -45 26 -25 0 -35 -4 -35 -16 0 -10 6 -13 19 -9 20 6 51 -3 51
-15 0 -15 -55 -18 -77 -4 -48 31 -12 82 48 69 22 -5 29 -3 29 9 0 25 -75 21
-100 -4z"/>
<path d="M1927 292 c-16 -18 -16 -20 -1 -33 9 -8 31 -18 48 -24 43 -14 34 -31
-14 -27 -30 2 -40 -1 -40 -13 0 -20 78 -21 105 -1 19 14 19 15 1 35 -11 12
-33 25 -50 29 -44 12 -33 28 15 24 30 -2 40 1 37 10 -8 22 -81 22 -101 0z"/>
<path d="M2068 283 c6 -2 18 -2 25 0 6 3 1 5 -13 5 -14 0 -19 -2 -12 -5z"/>
<path d="M563 263 c0 -17 13 -17 20 0 3 8 0 14 -7 14 -7 0 -13 -6 -13 -14z"/>
<path d="M1113 159 c-2 -23 3 -25 10 -4 4 8 3 16 -1 19 -4 3 -9 -4 -9 -15z"/>
<path d="M1590 170 c0 -5 5 -10 11 -10 5 0 7 5 4 10 -3 6 -8 10 -11 10 -2 0
-4 -4 -4 -10z"/>
<path d="M1886 165 c-9 -26 -7 -32 5 -12 6 10 9 21 6 23 -2 3 -7 -2 -11 -11z"/>
<path d="M2063 165 c-3 -9 -3 -18 -1 -21 3 -3 8 4 11 16 6 23 -1 27 -10 5z"/>
<path d="M1225 159 c-4 -6 -5 -12 -2 -15 2 -3 7 2 10 11 7 17 1 20 -8 4z"/>
<path d="M1726 155 c-11 -8 -16 -15 -10 -15 5 0 18 7 28 15 11 8 16 15 10 15
-5 0 -18 -7 -28 -15z"/>
<path d="M1826 155 c3 -8 10 -13 14 -10 5 3 11 -1 13 -7 4 -10 6 -10 6 -1 1 7
-8 17 -19 23 -16 9 -18 8 -14 -5z"/>
<path d="M1275 149 c-4 -6 -5 -12 -2 -15 2 -3 7 2 10 11 7 17 1 20 -8 4z"/>
<path d="M1350 144 c0 -8 5 -12 10 -9 6 4 8 11 5 16 -9 14 -15 11 -15 -7z"/>
<path d="M1670 150 c-9 -6 -10 -10 -3 -10 6 0 15 5 18 10 8 12 4 12 -15 0z"/>
<path d="M2006 143 c-6 -14 -5 -15 5 -6 7 7 10 15 7 18 -3 3 -9 -2 -12 -12z"/>
<path d="M947 139 c7 -7 15 -10 18 -7 3 3 -2 9 -12 12 -14 6 -15 5 -6 -5z"/>
<path d="M1301 134 c0 -11 3 -14 6 -6 3 7 2 16 -1 19 -3 4 -6 -2 -5 -13z"/>
<path d="M1800 146 c0 -2 7 -9 15 -16 13 -11 14 -10 9 4 -5 14 -24 23 -24 12z"/>
<path d="M1762 124 c-7 -8 -8 -14 -3 -14 10 0 25 19 20 25 -2 1 -10 -3 -17
-11z"/>
<path d="M1676 122 c-3 -5 1 -9 9 -9 8 0 12 4 9 9 -3 4 -7 8 -9 8 -2 0 -6 -4
-9 -8z"/>
</g>
</svg>
