<?xml version="1.0" standalone="no"?>
<!DOCTYPE svg PUBLIC "-//W3C//DTD SVG 20010904//EN"
 "http://www.w3.org/TR/2001/REC-SVG-20010904/DTD/svg10.dtd">
<svg version="1.0" xmlns="http://www.w3.org/2000/svg"
 width="300.000000pt" height="301.000000pt" viewBox="0 0 300.000000 301.000000"
 preserveAspectRatio="xMidYMid meet">
<metadata>
Created by potrace 1.10, written by Peter Selinger 2001-2011
</metadata>
<g transform="translate(0.000000,301.000000) scale(0.100000,-0.100000)"
fill="#000000" stroke="none">
<path d="M0 2685 c0 -293 2 -325 16 -325 11 0 15 -6 11 -20 -3 -11 -1 -20 5
-20 5 0 12 8 15 19 3 13 17 21 45 25 44 7 61 0 38 -14 -12 -8 -13 -16 -2 -57
13 -49 73 -123 99 -123 7 0 13 -4 13 -10 0 -5 -14 -10 -31 -10 l-31 0 42 -50
c41 -49 102 -90 134 -90 13 0 90 -35 106 -48 10 -8 -35 -32 -60 -32 -14 0 -42
-11 -61 -25 -20 -13 -39 -22 -43 -20 -3 3 -2 -1 4 -7 5 -7 10 -28 10 -48 0
-31 -8 -42 -65 -92 -61 -53 -67 -56 -95 -46 -17 5 -33 14 -36 19 -3 5 -10 9
-16 9 -16 0 21 -38 43 -45 10 -4 28 -24 40 -45 12 -21 36 -46 53 -55 28 -15
39 -16 82 -6 141 34 139 35 102 -30 -13 -23 -27 -38 -35 -35 -9 4 -13 -4 -13
-25 0 -18 4 -28 10 -24 6 3 10 12 10 19 0 6 16 28 36 47 l37 34 -6 -37 c-6
-38 5 -52 17 -22 3 8 10 12 16 9 6 -4 8 -10 5 -15 -3 -5 11 -25 30 -46 37 -39
45 -60 20 -50 -18 6 -20 -10 -3 -20 11 -7 48 29 48 47 0 4 -12 14 -27 21 -42
20 -40 41 7 55 22 7 48 13 58 13 9 0 26 6 37 14 11 7 31 17 45 21 14 4 40 21
58 39 l34 31 -19 -32 c-17 -31 -17 -32 3 -55 29 -33 44 -73 44 -117 0 -44 -24
-117 -46 -142 -13 -14 -13 -18 1 -29 19 -16 19 -30 0 -30 -17 0 -55 -35 -55
-50 0 -16 23 -11 50 10 30 24 40 25 40 5 0 -51 -68 -115 -121 -115 -38 0 -76
-48 -137 -173 -70 -143 -65 -149 7 -10 69 135 80 148 135 162 23 6 55 20 70
32 30 23 66 88 66 118 0 28 10 31 48 15 28 -12 32 -17 26 -36 -10 -30 -9 -38
16 -143 11 -49 32 -106 44 -126 13 -19 38 -63 55 -97 45 -89 57 -77 14 13 -19
42 -33 78 -31 81 3 2 22 -31 43 -73 21 -43 49 -99 62 -124 13 -26 23 -54 23
-63 0 -9 4 -16 8 -16 10 0 34 -89 27 -101 -4 -5 -2 -9 3 -9 5 0 7 -12 5 -28
-3 -15 16 -92 41 -172 60 -195 60 -199 14 -225 -38 -20 -49 -35 -25 -35 7 0
24 -11 39 -25 27 -25 78 -35 78 -15 0 6 5 10 11 10 5 0 7 -4 4 -10 -9 -14 11
-13 36 2 17 10 23 10 26 1 4 -10 58 -13 224 -13 121 0 218 3 216 7 -3 5 4 17
14 27 15 15 19 16 19 5 0 -8 -5 -20 -12 -27 -9 -9 -8 -12 8 -12 14 0 25 15 42
55 12 31 22 65 22 76 0 27 86 202 110 224 27 25 25 11 -5 -33 -37 -54 -32 -72
9 -33 22 21 32 39 29 51 -3 12 9 33 36 61 23 24 41 49 41 55 0 7 6 19 13 26
37 38 47 64 47 128 0 51 4 71 19 86 21 24 12 54 -17 54 -19 0 -44 25 -55 53
-10 27 20 21 48 -9 14 -15 25 -30 25 -34 0 -3 16 -24 35 -46 l36 -39 -5 42
c-3 28 0 43 8 46 7 3 21 42 32 86 12 50 24 81 32 81 8 0 10 5 6 12 -5 8 -2 9
9 5 12 -4 34 11 74 53 36 38 65 60 79 60 36 0 54 11 54 32 0 24 18 58 31 58 5
0 3 -14 -6 -30 -25 -49 -8 -34 30 25 38 59 42 70 23 59 -7 -5 -22 -8 -35 -8
-12 -1 -46 -23 -76 -50 -61 -55 -110 -69 -133 -39 -13 17 -13 17 -14 -3 0 -11
-6 -21 -12 -21 -7 0 -30 -7 -51 -16 -28 -12 -39 -23 -43 -47 -4 -17 -11 -33
-15 -36 -5 -3 -9 -28 -9 -55 0 -31 -4 -48 -10 -44 -5 3 -10 17 -10 30 0 14 -9
41 -20 60 -11 20 -23 53 -26 73 -3 20 -10 39 -15 40 -5 2 -9 9 -9 16 0 7 -11
26 -25 42 -22 26 -25 27 -25 8 0 -11 4 -24 9 -30 4 -5 16 -34 26 -64 9 -30 24
-70 33 -88 8 -17 13 -35 9 -38 -3 -3 -24 34 -47 83 -82 178 -78 171 -86 146
-5 -19 -9 -21 -26 -12 -26 14 -33 6 -13 -14 8 -9 15 -30 15 -48 0 -26 -3 -30
-12 -21 -26 26 -27 9 -2 -45 14 -32 35 -80 47 -108 11 -27 27 -57 34 -66 12
-14 12 -17 -1 -22 -11 -4 -21 5 -32 29 -19 39 -34 53 -34 30 0 -9 -5 -16 -10
-16 -7 0 -7 7 0 21 14 25 -15 91 -60 134 l-30 28 9 -31 c8 -28 8 -30 -7 -21
-20 13 -73 81 -119 153 -18 27 -33 46 -33 41 0 -6 14 -30 30 -55 16 -25 30
-49 30 -53 0 -4 11 -20 25 -35 14 -15 25 -33 25 -40 0 -8 9 -21 20 -30 20 -18
68 -128 50 -117 -5 3 -10 2 -10 -4 0 -5 4 -13 10 -16 5 -3 10 -18 10 -32 0
-21 -3 -23 -14 -14 -8 7 -17 23 -20 37 -4 14 -25 51 -46 83 -22 32 -40 64 -40
70 0 15 -19 14 -33 -2 -24 -24 -67 -86 -67 -94 0 -4 9 3 20 17 19 24 21 24 34
7 15 -20 10 -57 -8 -58 -6 0 0 -5 14 -11 21 -9 22 -12 7 -15 -11 -3 -16 -11
-13 -18 3 -8 8 -31 12 -52 7 -35 6 -37 -10 -24 -19 16 -26 12 -29 -18 -1 -11
-7 -21 -14 -21 -7 0 -13 -5 -13 -11 0 -5 -4 -7 -10 -4 -6 3 -10 -4 -10 -16 0
-18 -3 -20 -12 -11 -7 7 -24 12 -39 12 -36 0 -42 25 -16 68 l19 32 -26 -10
c-14 -5 -38 -16 -54 -24 -15 -7 -38 -17 -51 -21 -22 -7 -23 -5 -19 29 2 20 0
36 -4 36 -4 0 -8 9 -8 21 0 20 50 49 84 49 9 0 30 9 48 21 l33 21 -55 -7 c-30
-3 -74 -9 -97 -12 -23 -3 -53 -3 -67 1 -34 8 -94 67 -100 97 -3 13 -8 38 -11
54 -4 17 -10 71 -14 122 -10 117 -46 193 -137 287 -87 89 -89 105 -36 266 42
127 51 159 73 264 7 34 20 63 30 69 14 8 15 15 8 30 -13 23 -17 103 -6 114 11
10 21 -7 88 -159 77 -172 103 -209 176 -246 44 -23 128 -20 119 3 -3 9 23 20
84 35 48 12 100 28 115 36 34 17 35 17 35 -1 0 -8 -4 -15 -10 -15 -5 0 -10 -5
-10 -10 0 -6 -10 -20 -22 -32 -21 -21 -22 -23 -4 -26 10 -2 28 1 40 6 11 6 40
13 62 16 l42 6 20 -48 c10 -26 27 -69 37 -97 31 -89 155 -179 155 -112 0 29
-36 139 -62 190 -34 67 -14 61 35 -11 52 -76 67 -115 67 -177 0 -63 8 -69 79
-61 44 5 61 4 61 -5 0 -6 18 5 40 25 22 20 57 43 78 51 37 15 37 16 38 75 0
51 -2 58 -15 47 -23 -19 14 41 55 88 32 38 33 38 26 10 -8 -28 2 -80 26 -138
7 -16 12 -40 12 -54 0 -35 21 -93 34 -93 5 0 17 -7 27 -16 10 -9 46 -25 80
-37 34 -12 64 -27 66 -33 2 -6 -15 -34 -37 -62 -22 -28 -36 -53 -31 -57 6 -3
15 5 22 17 7 13 25 40 41 61 l30 37 -36 44 c-41 51 -43 57 -18 79 26 23 28 22
53 -23 13 -22 26 -40 29 -40 9 0 30 47 30 65 0 8 7 18 15 23 25 13 -18 46 -60
46 -27 0 -35 4 -35 18 0 21 39 25 58 6 6 -6 15 -9 18 -5 4 3 -8 18 -26 33 -54
46 -57 51 -64 99 -5 27 -14 50 -25 57 -17 10 -17 13 -2 30 9 10 29 18 48 18
17 0 34 4 38 9 3 6 -17 9 -49 7 -41 -3 -53 0 -50 9 3 7 -3 19 -14 26 -23 17
-71 109 -65 127 12 33 -31 5 -83 -53 -31 -36 -59 -63 -62 -61 -5 6 115 149
129 154 5 2 12 -3 15 -12 7 -19 27 -20 54 -3 28 17 41 -4 39 -63 -3 -72 2 -90
12 -50 5 19 7 58 4 86 -5 39 -2 54 10 64 19 16 29 5 76 -87 32 -63 35 -106 13
-168 -5 -16 -4 -17 5 -9 21 19 31 85 20 134 -6 27 -29 75 -55 111 -24 35 -62
91 -84 123 -49 72 -55 78 -45 46 4 -14 23 -47 42 -73 19 -27 33 -50 31 -52 -7
-6 -99 -35 -112 -35 -23 0 -95 90 -108 134 -17 59 -17 76 0 76 20 0 9 69 -21
130 -18 36 -28 45 -50 47 l-28 2 30 -28 c33 -31 49 -99 33 -140 -8 -23 -11
-21 -42 38 -40 74 -53 64 -17 -12 13 -29 33 -72 43 -97 10 -25 21 -47 24 -50
3 -3 19 -26 37 -51 l32 -46 -29 -1 c-21 0 -30 5 -34 22 -3 12 -17 28 -31 36
-14 7 -25 17 -25 22 0 4 -4 8 -10 8 -5 0 -10 -16 -10 -35 0 -41 -24 -57 -44
-30 -12 16 -15 15 -38 -16 -14 -19 -35 -53 -47 -76 -11 -23 -25 -44 -30 -48
-13 -7 64 139 100 192 16 23 36 46 45 51 14 8 10 24 -30 123 -25 63 -48 126
-51 140 -4 17 -17 29 -40 38 -20 7 -43 26 -55 46 -12 19 -35 44 -51 56 -16 11
-29 25 -29 30 0 18 56 9 92 -16 l37 -25 11 21 c7 12 10 29 7 39 -5 21 10 50
27 50 7 0 18 -12 25 -27 27 -62 116 -203 127 -203 7 0 21 -3 31 -7 13 -4 9 4
-13 28 -17 19 -52 71 -78 115 l-46 81 30 82 c34 93 31 111 -26 150 l-34 24
-43 -19 c-23 -10 -60 -33 -83 -50 -23 -18 -51 -37 -62 -43 -11 -6 -26 -27 -32
-46 -12 -35 -40 -49 -40 -20 0 9 -8 25 -19 36 -10 11 -22 42 -25 69 -6 46 0
71 32 133 2 4 -1 7 -7 7 -23 0 -46 -66 -51 -150 l-5 -85 -16 50 c-15 44 -15
54 -1 95 8 25 19 49 23 55 15 16 10 35 -9 35 -14 0 -24 -15 -38 -61 -15 -47
-28 -68 -61 -95 -23 -19 -46 -34 -51 -34 -6 0 -19 15 -31 33 l-21 32 21 18
c12 9 31 17 43 17 26 0 96 55 96 76 0 21 -16 17 -45 -11 -32 -29 -108 -60
-130 -52 -8 4 -15 18 -15 32 0 15 -4 24 -10 20 -6 -3 -10 1 -10 9 0 11 -9 16
-26 16 -24 0 -26 -2 -20 -32 6 -30 5 -31 -8 -13 -9 11 -16 26 -16 33 0 9 -36
12 -146 12 -121 0 -145 -2 -141 -14 4 -10 0 -12 -14 -9 -11 3 -22 9 -25 14 -8
14 -24 11 -24 -4 0 -18 -42 -37 -80 -37 -33 0 -49 -16 -23 -23 17 -4 17 -4 0
-12 -11 -5 -24 -2 -35 8 -9 8 -45 29 -78 46 -59 30 -66 32 -166 29 l-104 -3 9
-35 c10 -34 10 -34 17 -10 6 21 8 22 14 8 4 -9 2 -27 -5 -39 l-12 -23 -21 26
c-11 15 -29 38 -39 52 -16 24 -66 39 -52 16 4 -6 -8 -10 -29 -10 -19 0 -38 5
-41 10 -3 6 -18 10 -33 9 l-27 0 25 -10 c25 -10 24 -11 -15 -24 -22 -8 -44
-21 -49 -29 -8 -12 -15 -10 -44 12 -31 24 -32 27 -17 39 15 11 11 12 -29 11
-38 0 -44 -3 -35 -14 9 -11 8 -14 -2 -15 -8 -1 1 -4 20 -8 27 -5 38 -13 48
-38 l13 -33 -38 21 c-20 12 -41 25 -46 30 -6 5 -19 9 -30 9 -12 0 -41 11 -65
25 -25 15 -59 25 -81 25 -34 0 -38 -2 -33 -22 l5 -23 -20 23 c-20 21 -26 22
-196 22 l-176 0 0 -325z m311 236 c22 -41 38 -78 37 -82 -5 -13 -92 97 -99
125 -7 26 -2 39 14 33 4 -1 26 -36 48 -76z m799 70 c0 -12 -20 -25 -27 -18 -7
7 6 27 18 27 5 0 9 -4 9 -9z m790 -80 c0 -11 -4 -9 -15 5 -8 10 -14 28 -14 39
0 18 1 17 14 -5 8 -14 14 -31 15 -39z m-1120 24 c0 -9 -100 -129 -124 -147
-41 -33 -34 -18 15 35 27 28 59 67 72 84 20 30 37 42 37 28z m1731 -32 c35
-21 38 -35 22 -98 -14 -55 -40 -80 -90 -90 -26 -5 -33 -11 -33 -30 0 -31 -20
-43 -36 -20 -16 21 1 55 28 55 10 0 18 7 18 15 0 8 3 15 8 15 9 0 32 72 32
103 0 13 -6 29 -12 36 -11 11 -10 13 4 8 10 -4 17 -3 17 1 -4 26 4 27 42 5z
m-1054 -30 c-4 -3 -7 0 -7 7 0 7 3 10 7 7 3 -4 3 -10 0 -14z m229 -39 c-4 -9
-9 -15 -11 -12 -3 3 -3 13 1 22 4 9 9 15 11 12 3 -3 3 -13 -1 -22z m721 9 c26
23 33 22 33 -7 0 -30 -23 -50 -50 -41 -17 5 -20 2 -20 -19 0 -22 -4 -26 -30
-26 -35 0 -37 4 -10 32 11 12 20 26 20 30 0 11 -33 -6 -49 -26 -8 -9 -17 -13
-22 -10 -12 7 39 63 66 73 14 6 24 3 32 -8 10 -14 13 -14 30 2z m-651 -68
c-33 -36 -62 -63 -65 -60 -5 6 109 125 119 125 3 0 -21 -29 -54 -65z m319 35
c1 -11 -2 -20 -7 -20 -4 0 -8 12 -8 27 0 30 13 24 15 -7z m-1095 17 c0 -2 -17
-19 -37 -38 l-38 -34 34 38 c33 34 41 42 41 34z m450 -7 c0 -6 -6 -10 -12 -10
-9 0 -9 -3 1 -9 8 -5 29 -7 48 -4 28 5 32 3 27 -11 -9 -25 -76 -20 -174 13
l-85 29 98 1 c57 0 97 -3 97 -9z m237 -27 c-4 -3 -7 0 -7 7 0 7 3 10 7 7 3 -4
3 -10 0 -14z m-1421 -41 c16 -37 54 -153 54 -162 -1 -3 -12 13 -25 35 -24 38
-37 72 -55 142 -10 43 5 33 26 -15z m1279 38 c3 -5 4 -10 1 -10 -3 0 -8 5 -11
10 -3 6 -4 10 -1 10 3 0 8 -4 11 -10z m-1328 -146 c-5 -6 -53 85 -61 116 -4
14 10 -6 29 -44 20 -37 34 -70 32 -72z m2151 58 c3 -20 -1 -22 -40 -22 l-43 1
29 25 c32 28 50 27 54 -4z m-1444 2 c9 -3 16 -10 16 -14 0 -10 -38 -1 -46 11
-6 10 7 12 30 3z m-337 -31 c-4 -3 -7 0 -7 7 0 7 3 10 7 7 3 -4 3 -10 0 -14z
m1497 -114 c13 -44 13 -49 1 -39 -19 16 -55 114 -54 148 0 24 2 23 19 -16 11
-23 26 -65 34 -93z m170 106 c-7 -17 -20 -20 -28 -6 -4 5 0 12 6 14 23 9 28 7
22 -8z m-1628 -57 c8 -16 11 -28 6 -28 -5 0 -16 16 -25 35 -30 63 -17 58 19
-7z m373 -35 c17 -36 29 -68 27 -71 -4 -4 -76 131 -76 143 0 19 22 -14 49 -72z
m-755 -72 c20 -45 35 -85 33 -87 -4 -5 -87 169 -87 182 0 17 18 -15 54 -95z
m61 -8 c20 -37 48 -77 60 -88 23 -20 62 -101 53 -110 -10 -10 -122 170 -147
239 -17 44 -5 29 34 -41z m1485 13 c0 -18 -17 8 -24 34 l-7 25 15 -25 c9 -14
15 -29 16 -34z m440 50 c0 -3 -5 -8 -12 -12 -7 -4 -8 -3 -4 4 7 12 16 16 16 8z
m-355 -56 c3 -5 2 -10 -4 -10 -5 0 -13 5 -16 10 -3 6 -2 10 4 10 5 0 13 -4 16
-10z m-63 -36 c4 -3 8 -10 8 -17 0 -8 -3 -8 -11 0 -9 9 -15 8 -24 -1 -18 -17
-70 -8 -91 15 -17 19 -17 20 46 14 35 -4 67 -8 72 -11z m115 -83 c27 -31 30
-49 6 -30 -48 39 -66 56 -75 74 -11 19 -11 19 18 0 16 -10 39 -30 51 -44z m30
42 c20 -27 53 -90 53 -105 0 -14 -15 6 -54 75 -27 46 -27 64 1 30z m227 -102
c26 -63 45 -119 43 -125 -8 -24 -97 183 -97 226 0 30 3 26 54 -101z m-1824
-15 c0 -12 -53 0 -107 24 -50 22 -51 34 -1 38 18 2 35 8 37 14 4 11 70 -60 71
-76z m1509 27 c10 -21 22 -54 26 -73 10 -45 26 -76 64 -120 31 -35 25 -56 -8
-26 -10 9 -22 16 -27 16 -22 0 -36 38 -81 218 -8 34 4 26 26 -15z m-1627 -21
c95 -50 109 -62 102 -86 -6 -18 -5 -19 8 -8 12 10 18 8 32 -7 23 -25 12 -30
-59 -27 -59 3 -112 23 -134 50 -27 32 -34 106 -11 106 4 0 32 -13 62 -28z
m1788 -80 c36 -96 17 -90 -28 8 -39 85 -40 92 -17 70 13 -13 34 -48 45 -78z
m457 61 c-4 -3 -7 0 -7 7 0 7 3 10 7 7 3 -4 3 -10 0 -14z m-1897 -1 c0 -10
-71 -34 -79 -27 -4 5 56 34 72 35 4 0 7 -4 7 -8z m1930 -39 c0 -19 -3 -24 -10
-17 -6 6 -8 18 -4 27 9 24 14 21 14 -10z m-1238 -101 c-28 -52 -32 -66 -21
-73 8 -5 17 -9 22 -9 4 0 7 -5 7 -10 0 -6 -17 -10 -37 -9 -21 1 -46 -2 -57 -6
-11 -5 -17 -4 -15 1 3 5 13 27 23 49 10 22 25 56 34 75 26 56 41 71 62 58 17
-11 15 -16 -18 -76z m553 48 c21 -40 20 -40 -25 -40 -40 0 -54 15 -25 26 8 4
15 15 15 25 0 28 17 23 35 -11z m-140 -33 c20 -27 35 -50 33 -53 -12 -11 -70
12 -113 44 -65 50 -66 59 -6 58 47 -1 51 -3 86 -49z m-313 28 c0 -5 -5 -11
-11 -13 -6 -2 -11 4 -11 13 0 9 5 15 11 13 6 -2 11 -8 11 -13z m188 -34 c38
-32 36 -44 -7 -42 -15 1 -45 1 -66 1 -35 0 -38 2 -32 23 8 26 32 47 55 47 9 0
31 -13 50 -29z m-1103 -7 c22 -6 40 -51 26 -65 -4 -4 -30 3 -56 17 -27 13 -51
24 -55 24 -4 0 -8 -16 -9 -35 -3 -29 0 -35 17 -35 11 0 20 -4 20 -10 0 -15
-57 -12 -90 5 -28 15 -70 60 -70 76 0 25 40 4 69 -36 41 -58 50 -58 17 -1 -14
25 -26 47 -26 50 0 2 25 5 56 5 31 0 58 2 62 5 7 7 11 7 39 0z m1350 -31 c-4
-3 -10 -3 -14 0 -3 4 0 7 7 7 7 0 10 -3 7 -7z m583 -40 c-11 -17 -11 -17 -6 0
3 10 6 24 7 30 0 9 2 9 5 0 3 -7 0 -20 -6 -30z m-1093 0 c-4 -3 -7 0 -7 7 0 7
3 10 7 7 3 -4 3 -10 0 -14z m559 -38 c9 -8 24 -15 34 -15 10 0 20 -9 23 -21 5
-19 3 -21 -31 -15 -20 3 -81 8 -135 12 -99 7 -144 24 -65 24 24 0 66 7 93 14
65 18 64 18 81 1z m521 -2 c-4 -3 -7 0 -7 7 0 7 3 10 7 7 3 -4 3 -10 0 -14z
m-292 -40 c-15 -27 -39 -59 -53 -73 l-25 -25 20 30 c11 17 32 49 47 73 36 57
44 53 11 -5z m-1635 17 c0 -5 -4 -10 -9 -10 -6 0 -13 5 -16 10 -3 6 1 10 9 10
9 0 16 -4 16 -10z m690 -34 c0 -3 -5 -8 -12 -12 -7 -4 -8 -3 -4 4 7 12 16 16
16 8z m367 -18 c14 -17 23 -58 14 -58 -5 0 -16 9 -26 20 -10 11 -14 20 -10 20
5 0 0 7 -11 15 -19 14 -19 14 2 15 12 0 26 -6 31 -12z m358 4 c31 -10 60 -30
54 -36 -3 -3 -27 1 -54 9 -26 8 -77 15 -112 15 -40 0 -62 4 -58 10 7 11 138
12 170 2z m32 -57 c22 -15 24 -19 10 -26 -19 -11 -218 11 -210 23 19 32 153
34 200 3z m-816 -23 c-11 -16 -36 -43 -54 -59 -41 -36 -54 -55 -33 -47 24 9
19 -10 -10 -37 -14 -13 -30 -35 -36 -49 -7 -18 -11 -21 -18 -11 -6 10 -12 7
-24 -15 -21 -39 -19 -21 3 48 28 83 36 94 94 131 29 19 61 44 71 56 27 30 32
18 7 -17z m1706 21 c-4 -3 -7 0 -7 7 0 7 3 10 7 7 3 -4 3 -10 0 -14z m-2354
-38 c3 -7 -3 -24 -13 -37 l-20 -23 -7 25 c-7 23 -8 22 -14 -15 -9 -51 1 -61
48 -49 34 8 42 16 70 72 1 2 12 -4 25 -12 14 -9 28 -13 31 -9 4 3 7 2 7 -4 0
-6 15 -14 33 -17 19 -3 44 -17 57 -31 13 -14 30 -25 37 -25 8 0 11 -5 8 -10
-6 -9 -42 3 -55 19 -4 5 -30 19 -74 39 -5 3 -5 -1 -1 -8 4 -6 23 -18 41 -26
19 -8 34 -21 34 -29 0 -17 -16 -20 -25 -5 -3 6 -18 10 -33 10 -20 -1 -36 -12
-61 -45 -31 -42 -45 -50 -79 -46 -7 1 -51 -7 -97 -19 -47 -12 -89 -18 -95 -15
-22 14 -8 45 32 72 51 34 68 64 68 121 0 37 4 45 33 62 38 24 43 24 50 5z
m2386 -9 c5 -13 10 -52 12 -87 1 -35 6 -69 11 -76 5 -7 10 -32 10 -57 0 -25 4
-48 9 -52 13 -8 11 -34 -3 -34 -6 0 -9 3 -5 6 3 4 -5 21 -18 38 -21 28 -24 42
-27 159 -2 70 -2 127 0 127 1 0 7 -11 11 -24z m-1699 -11 c-13 -14 -28 -25
-34 -25 -11 1 40 50 51 50 4 0 -4 -11 -17 -25z m847 8 c-4 -3 -10 -3 -14 0 -3
4 0 7 7 7 7 0 10 -3 7 -7z m-393 -19 c8 -21 8 -24 -3 -24 -5 0 -11 9 -14 20
-6 24 8 27 17 4z m-439 -43 c3 -6 -20 -28 -52 -49 -102 -70 -121 -97 -135
-187 -21 -142 -13 -198 53 -395 62 -185 65 -200 49 -200 -23 0 -90 161 -103
247 -4 28 -17 42 -17 20 0 -11 -8 -17 -24 -17 -35 0 -38 12 -16 63 14 30 21
74 24 134 9 195 17 253 40 265 12 6 49 37 84 69 61 57 85 69 97 50z m-815 -61
c-11 -20 -70 -57 -70 -44 0 13 33 44 47 44 7 0 13 5 13 10 0 6 5 10 10 10 7 0
7 -6 0 -20z m314 -59 c16 -18 16 -20 -11 -39 -41 -29 -114 -64 -120 -58 -9 9
35 94 54 105 28 16 58 13 77 -8z m129 -16 c-36 -45 -48 -45 -22 0 12 19 27 35
35 35 10 0 6 -11 -13 -35z m322 -3 c-13 -11 -65 -33 -65 -27 0 2 12 11 28 19
30 17 52 21 37 8z m-375 -12 c0 -5 -10 -10 -22 -10 -19 0 -20 2 -8 10 19 13
30 13 30 0z m2070 -35 c0 -5 -5 -3 -10 5 -5 8 -10 20 -10 25 0 6 5 3 10 -5 5
-8 10 -19 10 -25z m-2540 -10 c11 -13 10 -14 -4 -9 -9 3 -16 10 -16 15 0 13 6
11 20 -6z m471 -24 c-6 -10 -22 -26 -37 -36 -28 -18 -25 -8 10 32 24 28 41 30
27 4z m2087 -21 c6 -16 7 -30 3 -30 -14 0 -42 49 -36 60 9 15 22 4 33 -30z
m-2511 23 c-4 -3 -10 -3 -14 0 -3 4 0 7 7 7 7 0 10 -3 7 -7z m363 0 c-1 -14
-34 -50 -52 -56 -10 -4 -25 -4 -33 -1 -11 5 -5 13 22 34 37 28 63 37 63 23z
m2305 -23 c3 -5 2 -10 -4 -10 -5 0 -13 5 -16 10 -3 6 -2 10 4 10 5 0 13 -4 16
-10z m-218 -36 c-3 -3 -12 -4 -19 -1 -8 3 -5 6 6 6 11 1 17 -2 13 -5z m98 -54
l16 -31 -28 7 c-36 9 -47 19 -40 38 10 26 35 18 52 -14z m-1955 -152 c0 -20
-24 -78 -32 -78 -10 0 -10 7 3 53 9 34 29 52 29 25z m234 -313 c46 -158 59
-236 31 -183 -14 25 -85 272 -85 293 1 27 33 -39 54 -110z m1046 -26 c0 -10 7
-19 15 -19 11 0 15 -11 15 -38 0 -21 3 -42 7 -46 8 -8 15 -46 9 -46 -12 0
-106 175 -112 208 l-7 37 37 -38 c20 -21 36 -47 36 -58z m307 56 c5 -16 -22
-55 -39 -55 -4 0 -8 16 -8 35 0 29 4 35 20 35 11 0 23 -7 27 -15z m-1208 -80
c18 -41 54 -116 81 -166 35 -65 47 -96 41 -107 -7 -13 -15 -7 -39 32 -33 52
-132 285 -132 311 0 31 18 5 49 -70z m1131 58 c0 -10 -5 -25 -10 -33 -7 -11
-10 -7 -10 18 0 17 5 32 10 32 6 0 10 -8 10 -17z m-1380 -93 c0 -5 -2 -10 -4
-10 -3 0 -8 5 -11 10 -3 6 -1 10 4 10 6 0 11 -4 11 -10z m1277 -76 c-13 -13
-27 10 -26 44 l0 37 16 -38 c8 -21 13 -40 10 -43z m-1071 -16 c9 -17 27 -43
40 -57 14 -14 41 -51 61 -81 20 -30 45 -67 55 -82 25 -38 23 -48 -12 -48 -24
0 -37 10 -69 53 -56 74 -94 155 -97 205 -2 23 -1 42 1 42 3 0 12 -14 21 -32z
m862 -1 c2 -10 -3 -17 -12 -17 -10 0 -16 9 -16 21 0 24 23 21 28 -4z m189 -29
c-1 -10 -4 -18 -8 -18 -4 0 -9 8 -11 18 -3 11 0 19 8 19 7 0 12 -9 11 -19z
m-220 -60 c-3 -22 -4 -21 -11 4 -5 16 -5 36 0 45 7 16 8 15 11 -4 3 -13 3 -33
0 -45z m115 17 c24 -28 33 -33 40 -23 7 10 9 10 6 -2 -3 -8 -18 -21 -34 -29
-16 -8 -32 -19 -35 -24 -16 -23 -69 54 -69 99 0 24 3 26 30 20 17 -3 44 -21
62 -41z m147 14 c-7 -14 -14 -18 -21 -11 -13 13 -2 32 18 32 12 0 13 -4 3 -21z
m-309 -19 c0 -5 -2 -10 -4 -10 -3 0 -8 5 -11 10 -3 6 -1 10 4 10 6 0 11 -4 11
-10z m-4 -47 c5 -21 8 -24 11 -10 9 37 32 6 49 -65 3 -16 10 -28 15 -28 5 0 9
-9 9 -21 0 -11 6 -30 12 -42 14 -25 18 -67 6 -67 -8 0 -128 236 -128 252 0 20
19 5 26 -19z m109 -55 c1 -13 5 -22 8 -20 4 1 14 2 22 2 8 0 15 6 15 13 0 13
58 53 65 45 3 -2 -17 -27 -44 -56 l-48 -52 -32 59 c-37 69 -39 84 -9 54 12
-12 22 -32 23 -45z m-616 48 c-2 -2 -17 -6 -34 -10 -22 -5 -26 -4 -15 4 14 9
59 15 49 6z m179 -26 c6 -17 7 -32 2 -35 -10 -6 -30 26 -30 49 0 27 17 18 28
-14z m142 -14 c0 -3 -5 -8 -12 -12 -7 -4 -8 -3 -4 4 7 12 16 16 16 8z m380
-116 c-12 -16 -26 -30 -31 -30 -14 0 -11 7 14 34 31 34 42 32 17 -4z m-100
-214 c0 -3 -5 -8 -12 -12 -7 -4 -8 -3 -4 4 7 12 16 16 16 8z m-771 -146 c1
-37 -2 -60 -8 -60 -6 0 -12 14 -12 30 -3 70 -1 90 9 90 5 0 10 -27 11 -60z
m629 5 c-6 -14 -13 -23 -15 -21 -5 5 15 46 22 46 3 0 -1 -11 -7 -25z"/>
<path d="M493 1713 c4 -3 10 -3 14 0 3 4 0 7 -7 7 -7 0 -10 -3 -7 -7z"/>
<path d="M454 1698 c-4 -7 -3 -8 4 -4 12 7 16 16 8 16 -3 0 -8 -5 -12 -12z"/>
<path d="M2096 733 c-12 -12 -5 -23 14 -23 11 0 20 4 20 9 0 11 -26 22 -34 14z"/>
<path d="M2407 2980 c16 -28 33 -39 33 -22 0 13 -31 52 -41 52 -6 0 -2 -13 8
-30z"/>
<path d="M2482 2464 c9 -10 22 -32 28 -48 14 -39 23 -28 9 13 -6 17 -21 36
-33 43 -20 10 -20 10 -4 -8z"/>
<path d="M2689 2447 c5 -5 24 -7 42 -5 33 3 33 4 -8 8 -23 3 -39 2 -34 -3z"/>
<path d="M150 2103 c0 -23 -3 -50 -7 -60 -3 -10 -3 -15 2 -11 12 12 23 85 14
100 -6 8 -9 -2 -9 -29z"/>
<path d="M2809 1985 c16 -34 39 -50 27 -19 -3 9 -6 20 -6 24 0 5 -8 14 -19 19
-17 10 -17 9 -2 -24z"/>
<path d="M341 1984 c0 -11 3 -14 6 -6 3 7 2 16 -1 19 -3 4 -6 -2 -5 -13z"/>
<path d="M385 1970 c3 -5 8 -10 11 -10 2 0 4 5 4 10 0 6 -5 10 -11 10 -5 0 -7
-4 -4 -10z"/>
<path d="M292 1920 c0 -14 2 -19 5 -12 2 6 2 18 0 25 -3 6 -5 1 -5 -13z"/>
<path d="M2590 1700 c0 -7 3 -10 7 -7 3 4 3 10 0 14 -4 3 -7 0 -7 -7z"/>
<path d="M1235 1544 c8 -47 45 -122 62 -128 10 -4 10 3 -2 31 -9 20 -19 41
-24 47 -5 6 -11 28 -15 49 -4 20 -12 37 -18 37 -6 0 -8 -13 -3 -36z"/>
<path d="M380 1530 c0 -7 3 -10 7 -7 3 4 3 10 0 14 -4 3 -7 0 -7 -7z"/>
<path d="M1386 1487 c-22 -18 -27 -28 -22 -43 6 -12 10 -15 13 -6 3 6 13 12
23 12 14 0 17 6 13 23 -4 19 -1 18 24 -11 31 -35 48 -40 57 -17 8 22 -2 41
-30 54 -35 16 -45 14 -78 -12z"/>
<path d="M584 1362 c-44 -42 -97 -98 -119 -124 -22 -27 -43 -48 -47 -48 -3 0
-9 10 -11 23 -4 19 -4 18 -6 -5 -2 -41 -39 -61 -94 -53 l-45 7 -7 -54 c-18
-132 -83 -271 -198 -423 l-60 -80 52 50 c28 28 71 79 94 115 23 36 72 98 109
139 38 40 92 108 122 150 77 109 96 128 137 135 30 5 43 17 87 81 51 73 52 76
31 83 -21 8 -21 9 10 41 18 18 31 35 28 37 -2 2 -39 -31 -83 -74z m-9 -82 c-3
-5 -12 -10 -18 -10 -7 0 -6 4 3 10 19 12 23 12 15 0z m-40 -36 c-9 -9 -18 -14
-21 -11 -9 9 6 27 22 27 13 0 13 -2 -1 -16z"/>
<path d="M2672 1413 c-3 -35 -11 -42 -23 -20 -6 9 -14 17 -20 17 -9 0 3 -19
108 -182 49 -77 64 -89 32 -26 -12 23 -23 60 -25 82 -5 51 -22 104 -43 133
-21 29 -26 29 -29 -4z"/>
<path d="M358 1361 c-29 -40 -35 -57 -19 -47 5 4 11 1 13 -4 2 -6 30 -15 63
-19 64 -9 87 -6 39 4 -53 12 -54 13 -54 60 0 25 -3 45 -7 45 -5 0 -20 -18 -35
-39z"/>
<path d="M1380 1300 c0 -18 6 -33 15 -36 8 -4 15 -13 15 -21 0 -8 4 -12 9 -9
16 10 -12 96 -31 96 -4 0 -8 -14 -8 -30z"/>
<path d="M150 1301 c0 -6 5 -11 10 -11 6 0 10 -11 10 -24 0 -14 -4 -28 -10
-31 -5 -3 -10 -16 -10 -28 0 -17 2 -19 9 -8 5 8 18 12 30 8 26 -6 26 3 1 53
-20 39 -40 60 -40 41z"/>
<path d="M2073 1183 c4 -3 10 -3 14 0 3 4 0 7 -7 7 -7 0 -10 -3 -7 -7z"/>
<path d="M2450 1130 c0 -5 5 -10 10 -10 6 0 10 5 10 10 0 6 -4 10 -10 10 -5 0
-10 -4 -10 -10z"/>
<path d="M1534 1022 c-20 -14 -42 -54 -37 -68 8 -21 32 -17 67 12 26 23 32 24
34 10 2 -9 8 -16 13 -16 12 0 12 2 -7 38 -15 31 -45 42 -70 24z"/>
<path d="M1573 963 c4 -3 10 -3 14 0 3 4 0 7 -7 7 -7 0 -10 -3 -7 -7z"/>
<path d="M1520 910 c0 -5 9 -10 20 -10 11 0 20 5 20 10 0 6 -9 10 -20 10 -11
0 -20 -4 -20 -10z"/>
<path d="M1080 720 c0 -7 3 -10 7 -7 3 4 3 10 0 14 -4 3 -7 0 -7 -7z"/>
<path d="M480 693 c0 -5 -17 -29 -37 -54 -21 -24 -27 -35 -14 -24 32 27 65 75
57 82 -3 4 -6 2 -6 -4z"/>
<path d="M1090 690 c0 -7 3 -10 7 -7 3 4 3 10 0 14 -4 3 -7 0 -7 -7z"/>
<path d="M369 534 c-27 -39 -78 -161 -79 -186 0 -23 20 -2 40 42 14 29 42 66
67 86 42 35 45 35 63 19 10 -9 42 -56 70 -104 59 -99 78 -126 84 -120 6 6 -65
147 -106 212 -17 26 -44 55 -59 63 -16 8 -29 19 -29 24 0 22 -21 7 -51 -36z"/>
<path d="M2425 530 c3 -5 8 -10 11 -10 3 0 2 5 -1 10 -3 6 -8 10 -11 10 -3 0
-2 -4 1 -10z"/>
<path d="M2198 474 c-19 -37 -26 -102 -8 -74 5 8 10 26 10 41 0 14 5 30 11 36
6 6 10 16 8 21 -2 6 -12 -5 -21 -24z"/>
<path d="M2455 500 c3 -5 8 -10 11 -10 3 0 2 5 -1 10 -3 6 -8 10 -11 10 -3 0
-2 -4 1 -10z"/>
<path d="M2485 463 c26 -96 33 -223 16 -295 -7 -29 -6 -38 4 -38 9 0 15 26 20
86 9 106 1 203 -20 244 -19 37 -30 39 -20 3z"/>
<path d="M2669 430 c-10 -7 -7 -11 14 -19 16 -6 33 -11 38 -11 13 0 11 -17 -7
-85 -9 -33 -29 -109 -44 -170 -15 -60 -31 -118 -35 -127 -6 -15 -1 -18 28 -18
28 0 40 6 55 28 25 36 77 149 86 187 l7 30 -23 -25 c-13 -14 -43 -67 -68 -119
-48 -100 -64 -100 -31 2 26 79 61 232 61 273 0 45 -46 75 -81 54z"/>
<path d="M2867 363 c-3 -5 -8 -30 -11 -56 -10 -66 -38 -145 -84 -232 l-39 -75
48 0 c48 0 65 12 34 24 -20 7 -19 39 4 84 25 50 48 134 56 205 6 52 3 69 -8
50z"/>
<path d="M2484 90 c-4 -16 -9 -30 -13 -30 -4 0 -15 -13 -24 -30 -17 -29 -17
-30 0 -30 23 0 41 29 49 80 8 46 -3 55 -12 10z"/>
<path d="M281 18 c-24 -4 -46 -10 -49 -13 -3 -3 80 -4 184 -4 156 1 180 3 139
11 -61 13 -94 13 -163 3 -33 -5 -57 -4 -60 2 -4 5 -25 6 -51 1z"/>
</g>
</svg>
