<svg id="svg" class="path" title="background" version="1.1" xmlns="http://www.w3.org/2000/svg" style="background-color: rgb(59, 171, 126);"><path fill="#26a37f" stroke="#26a37f" d="M -200 906 L -200 0 C -178 0, -156 16, -134 16 C -117 16, -100 16, -83 16 C -52 16, -21 -18, 10 -18 C 36 -18, 62 17, 88 17 C 105.66666666666667 17, 123.33333333333333 19, 141 19 C 168.33333333333334 19, 195.66666666666666 17, 223 17 C 250.66666666666666 17, 278.3333333333333 11, 306 11 C 335 11, 364 -16, 393 -16 C 418 -16, 443 -16, 468 -16 C 493.3333333333333 -16, 518.6666666666666 12, 544 12 C 567 12, 590 10, 613 10 C 641 10, 669 12, 697 12 C 729.6666666666666 12, 762.3333333333334 17, 795 17 C 815 17, 835 15, 855 15 C 871.6666666666666 15, 888.3333333333334 11, 905 11 C 935.3333333333334 11, 965.6666666666666 12, 996 12 C 1015 12, 1034 -12, 1053 -12 C 1083.3333333333333 -12, 1113.6666666666667 15, 1144 15 C 1165.3333333333333 15, 1186.6666666666667 12, 1208 12 C 1232 12, 1256 -18, 1280 -18 C 1309.3333333333333 -18, 1338.6666666666667 10, 1368 10 C 1390.3333333333333 10, 1412.6666666666667 14, 1435 14 C 1465.6666666666667 14, 1496.3333333333333 11, 1527 11 C 1547.3333333333333 11, 1567.6666666666667 15, 1588 15 C 1608.3333333333333 15, 1628.6666666666667 -11, 1649 -11 L 1800 0 L 1800 906 Z"></path><path fill="#039c7f" stroke="#039c7f" d="M -200 906 L -190 35 C -163 35, -136 19, -109 19 C -89.33333333333333 19, -69.66666666666667 54, -50 54 C -30 54, -10 18, 10 18 C 30.666666666666668 18, 51.33333333333333 45, 72 45 C 104.66666666666666 45, 137.33333333333334 53, 170 53 C 195.33333333333334 53, 220.66666666666666 19, 246 19 C 269 19, 292 19, 315 19 C 340.3333333333333 19, 365.6666666666667 16, 391 16 C 419.3333333333333 16, 447.6666666666667 21, 476 21 C 498.3333333333333 21, 520.6666666666666 17, 543 17 C 561.6666666666666 17, 580.3333333333334 45, 599 45 C 617 45, 635 45, 653 45 C 683 45, 713 46, 743 46 C 766 46, 789 24, 812 24 C 834 24, 856 45, 878 45 C 903 45, 928 21, 953 21 C 980.3333333333334 21, 1007.6666666666666 18, 1035 18 C 1052.6666666666667 18, 1070.3333333333333 46, 1088 46 C 1119.6666666666667 46, 1151.3333333333333 20, 1183 20 C 1213.6666666666667 20, 1244.3333333333333 18, 1275 18 C 1296 18, 1317 49, 1338 49 C 1360 49, 1382 48, 1404 48 C 1429.6666666666667 48, 1455.3333333333333 24, 1481 24 C 1500.6666666666667 24, 1520.3333333333333 22, 1540 22 C 1564.6666666666667 22, 1589.3333333333333 45, 1614 45 L 1800 35 L 1800 906 Z"></path><path fill="#00947f" stroke="#00947f" d="M -200 906 L -180 70 C -156.33333333333334 70, -132.66666666666666 85, -109 85 C -90 85, -71 53, -52 53 C -20.666666666666668 53, 10.666666666666668 54, 42 54 C 67.66666666666667 54, 93.33333333333333 55, 119 55 C 145 55, 171 87, 197 87 C 223 87, 249 56, 275 56 C 292 56, 309 55, 326 55 C 344.6666666666667 55, 363.3333333333333 83, 382 83 C 402 83, 422 88, 442 88 C 467 88, 492 81, 517 81 C 538.3333333333334 81, 559.6666666666666 60, 581 60 C 605.3333333333334 60, 629.6666666666666 60, 654 60 C 674 60, 694 52, 714 52 C 744.6666666666666 52, 775.3333333333334 87, 806 87 C 827.3333333333334 87, 848.6666666666666 54, 870 54 C 894 54, 918 52, 942 52 C 962 52, 982 57, 1002 57 C 1029.3333333333333 57, 1056.6666666666667 53, 1084 53 C 1101.3333333333333 53, 1118.6666666666667 82, 1136 82 C 1166.3333333333333 82, 1196.6666666666667 57, 1227 57 C 1245.3333333333333 57, 1263.6666666666667 88, 1282 88 C 1308 88, 1334 84, 1360 84 C 1385.3333333333333 84, 1410.6666666666667 88, 1436 88 C 1452.6666666666667 88, 1469.3333333333333 89, 1486 89 C 1510.6666666666667 89, 1535.3333333333333 80, 1560 80 C 1582 80, 1604 82, 1626 82 L 1800 70 L 1800 906 Z"></path><path fill="#008c7f" stroke="#008c7f" d="M -200 906 L -170 105 C -141 105, -112 122, -83 122 C -50.666666666666664 122, -18.333333333333336 89, 14 89 C 36 89, 58 95, 80 95 C 107 95, 134 122, 161 122 C 193 122, 225 115, 257 115 C 285.3333333333333 115, 313.6666666666667 87, 342 87 C 368.3333333333333 87, 394.6666666666667 87, 421 87 C 446.3333333333333 87, 471.6666666666667 116, 497 116 C 527.3333333333334 116, 557.6666666666666 87, 588 87 C 607.6666666666666 87, 627.3333333333334 94, 647 94 C 677.6666666666666 94, 708.3333333333334 116, 739 116 C 759.6666666666666 116, 780.3333333333334 118, 801 118 C 826 118, 851 95, 876 95 C 898.3333333333334 95, 920.6666666666666 117, 943 117 C 965.3333333333334 117, 987.6666666666666 124, 1010 124 C 1031.3333333333333 124, 1052.6666666666667 91, 1074 91 C 1100 91, 1126 91, 1152 91 C 1169.3333333333333 91, 1186.6666666666667 91, 1204 91 C 1223.3333333333333 91, 1242.6666666666667 116, 1262 116 C 1279 116, 1296 94, 1313 94 C 1331 94, 1349 118, 1367 118 C 1396.3333333333333 118, 1425.6666666666667 87, 1455 87 C 1472.3333333333333 87, 1489.6666666666667 89, 1507 89 C 1529 89, 1551 87, 1573 87 C 1591.6666666666667 87, 1610.3333333333333 92, 1629 92 L 1800 105 L 1800 906 Z"></path><path fill="#00857e" stroke="#00857e" d="M -200 906 L -160 141 C -137.33333333333334 141, -114.66666666666667 154, -92 154 C -71.66666666666667 154, -51.33333333333333 122, -31 122 C -8 122, 15 152, 38 152 C 55 152, 72 155, 89 155 C 110.33333333333333 155, 131.66666666666666 125, 153 125 C 185 125, 217 152, 249 152 C 279.3333333333333 152, 309.6666666666667 130, 340 130 C 365.3333333333333 130, 390.6666666666667 154, 416 154 C 434.6666666666667 154, 453.3333333333333 159, 472 159 C 496 159, 520 159, 544 159 C 564 159, 584 152, 604 152 C 623 152, 642 129, 661 129 C 683.6666666666666 129, 706.3333333333334 130, 729 130 C 757.3333333333334 130, 785.6666666666666 158, 814 158 C 838.6666666666666 158, 863.3333333333334 156, 888 156 C 906 156, 924 124, 942 124 C 962 124, 982 124, 1002 124 C 1031.3333333333333 124, 1060.6666666666667 122, 1090 122 C 1114 122, 1138 130, 1162 130 C 1180.6666666666667 130, 1199.3333333333333 159, 1218 159 C 1238.3333333333333 159, 1258.6666666666667 128, 1279 128 C 1303 128, 1327 122, 1351 122 C 1381.3333333333333 122, 1411.6666666666667 123, 1442 123 C 1466 123, 1490 125, 1514 125 C 1545.3333333333333 125, 1576.6666666666667 131, 1608 131 L 1800 141 L 1800 906 Z"></path><path fill="#007d7c" stroke="#007d7c" d="M -200 906 L -150 176 C -118.33333333333333 176, -86.66666666666667 158, -55 158 C -32.66666666666667 158, -10.333333333333332 163, 12 163 C 45 163, 78 161, 111 161 C 128.33333333333334 161, 145.66666666666666 162, 163 162 C 183.33333333333334 162, 203.66666666666666 191, 224 191 C 244.66666666666666 191, 265.3333333333333 192, 286 192 C 315.6666666666667 192, 345.3333333333333 195, 375 195 C 405.6666666666667 195, 436.3333333333333 163, 467 163 C 488.3333333333333 163, 509.6666666666667 159, 531 159 C 557 159, 583 166, 609 166 C 642 166, 675 164, 708 164 C 729.3333333333334 164, 750.6666666666666 186, 772 186 C 804.3333333333334 186, 836.6666666666666 186, 869 186 C 892.6666666666666 186, 916.3333333333334 191, 940 191 C 960 191, 980 186, 1000 186 C 1023.6666666666666 186, 1047.3333333333333 162, 1071 162 C 1100 162, 1129 195, 1158 195 C 1178 195, 1198 160, 1218 160 C 1244.6666666666667 160, 1271.3333333333333 160, 1298 160 C 1329 160, 1360 194, 1391 194 C 1423 194, 1455 165, 1487 165 C 1515.3333333333333 165, 1543.6666666666667 189, 1572 189 C 1602.6666666666667 189, 1633.3333333333333 190, 1664 190 L 1800 176 L 1800 906 Z"></path><path fill="#00757a" stroke="#00757a" d="M -200 906 L -140 211 C -119.66666666666667 211, -99.33333333333333 221, -79 221 C -59.33333333333333 221, -39.66666666666667 225, -20 225 C -1 225, 18 195, 37 195 C 62.66666666666667 195, 88.33333333333333 200, 114 200 C 144 200, 174 225, 204 225 C 229 225, 254 196, 279 196 C 311.6666666666667 196, 344.3333333333333 228, 377 228 C 402.6666666666667 228, 428.3333333333333 228, 454 228 C 482.3333333333333 228, 510.6666666666667 193, 539 193 C 566.6666666666666 193, 594.3333333333334 193, 622 193 C 654.6666666666666 193, 687.3333333333334 223, 720 223 C 744.3333333333334 223, 768.6666666666666 200, 793 200 C 823 200, 853 221, 883 221 C 906.6666666666666 221, 930.3333333333334 198, 954 198 C 980.3333333333334 198, 1006.6666666666666 226, 1033 226 C 1060.3333333333333 226, 1087.6666666666667 192, 1115 192 C 1132 192, 1149 195, 1166 195 C 1194.6666666666667 195, 1223.3333333333333 222, 1252 222 C 1272 222, 1292 197, 1312 197 C 1331.6666666666667 197, 1351.3333333333333 223, 1371 223 C 1401 223, 1431 222, 1461 222 C 1478 222, 1495 229, 1512 229 C 1532.3333333333333 229, 1552.6666666666667 226, 1573 226 C 1605.3333333333333 226, 1637.6666666666667 226, 1670 226 L 1800 211 L 1800 906 Z"></path><path fill="#006d77" stroke="#006d77" d="M -200 906 L -130 247 C -111.66666666666667 247, -93.33333333333333 266, -75 266 C -45 266, -15 236, 15 236 C 36.33333333333333 236, 57.66666666666667 260, 79 260 C 111 260, 143 236, 175 236 C 205.66666666666666 236, 236.33333333333334 235, 267 235 C 296 235, 325 258, 354 258 C 382.3333333333333 258, 410.6666666666667 237, 439 237 C 456.6666666666667 237, 474.3333333333333 265, 492 265 C 513.3333333333334 265, 534.6666666666666 236, 556 236 C 582 236, 608 262, 634 262 C 661.6666666666666 262, 689.3333333333334 235, 717 235 C 748 235, 779 266, 810 266 C 833.3333333333334 266, 856.6666666666666 266, 880 266 C 908 266, 936 234, 964 234 C 988.6666666666666 234, 1013.3333333333334 232, 1038 232 C 1059.6666666666667 232, 1081.3333333333333 257, 1103 257 C 1127 257, 1151 265, 1175 265 C 1196.6666666666667 265, 1218.3333333333333 234, 1240 234 C 1258 234, 1276 266, 1294 266 C 1318 266, 1342 265, 1366 265 C 1397.3333333333333 265, 1428.6666666666667 236, 1460 236 C 1485.3333333333333 236, 1510.6666666666667 266, 1536 266 C 1568 266, 1600 232, 1632 232 L 1800 247 L 1800 906 Z"></path><path fill="#006573" stroke="#006573" d="M -200 906 L -120 282 C -102 282, -84 301, -66 301 C -34 301, -2 269, 30 269 C 48.66666666666667 269, 67.33333333333333 299, 86 299 C 114.33333333333333 299, 142.66666666666666 271, 171 271 C 204 271, 237 270, 270 270 C 292.6666666666667 270, 315.3333333333333 299, 338 299 C 356.3333333333333 299, 374.6666666666667 299, 393 299 C 421 299, 449 265, 477 265 C 506 265, 535 297, 564 297 C 590 297, 616 299, 642 299 C 665.6666666666666 299, 689.3333333333334 269, 713 269 C 740 269, 767 264, 794 264 C 812.6666666666666 264, 831.3333333333334 267, 850 267 C 870.3333333333334 267, 890.6666666666666 300, 911 300 C 936 300, 961 293, 986 293 C 1011.6666666666666 293, 1037.3333333333333 296, 1063 296 C 1082 296, 1101 292, 1120 292 C 1146.3333333333333 292, 1172.6666666666667 301, 1199 301 C 1231 301, 1263 298, 1295 298 C 1320 298, 1345 271, 1370 271 C 1400.6666666666667 271, 1431.3333333333333 293, 1462 293 C 1491.6666666666667 293, 1521.3333333333333 269, 1551 269 C 1575.6666666666667 269, 1600.3333333333333 299, 1625 299 L 1800 282 L 1800 906 Z"></path><path fill="#005e6f" stroke="#005e6f" d="M -200 906 L -110 317 C -80.33333333333333 317, -50.66666666666667 305, -21 305 C 7 305, 35 305, 63 305 C 82.33333333333333 305, 101.66666666666667 307, 121 307 C 142.33333333333334 307, 163.66666666666666 328, 185 328 C 217.33333333333334 328, 249.66666666666666 306, 282 306 C 308 306, 334 301, 360 301 C 384.6666666666667 301, 409.3333333333333 331, 434 331 C 466.3333333333333 331, 498.6666666666667 333, 531 333 C 563 333, 595 334, 627 334 C 649.6666666666666 334, 672.3333333333334 298, 695 298 C 720.6666666666666 298, 746.3333333333334 333, 772 333 C 792 333, 812 304, 832 304 C 853.3333333333334 304, 874.6666666666666 301, 896 301 C 926 301, 956 328, 986 328 C 1014 328, 1042 302, 1070 302 C 1095 302, 1120 307, 1145 307 C 1171.3333333333333 307, 1197.6666666666667 305, 1224 305 C 1245 305, 1266 336, 1287 336 C 1311.3333333333333 336, 1335.6666666666667 305, 1360 305 C 1391 305, 1422 332, 1453 332 C 1481.3333333333333 332, 1509.6666666666667 298, 1538 298 C 1565.3333333333333 298, 1592.6666666666667 307, 1620 307 L 1800 317 L 1800 906 Z"></path><path fill="#00566a" stroke="#00566a" d="M -200 906 L -100 353 C -76 353, -52 363, -28 363 C -4.666666666666668 363, 18.666666666666668 365, 42 365 C 68.33333333333333 365, 94.66666666666667 334, 121 334 C 149.66666666666666 334, 178.33333333333334 340, 207 340 C 240 340, 273 341, 306 341 C 336.6666666666667 341, 367.3333333333333 343, 398 343 C 423 343, 448 340, 473 340 C 492 340, 511 368, 530 368 C 550.3333333333334 368, 570.6666666666666 335, 591 335 C 619.6666666666666 335, 648.3333333333334 371, 677 371 C 708.3333333333334 371, 739.6666666666666 335, 771 335 C 797 335, 823 365, 849 365 C 872 365, 895 363, 918 363 C 942.6666666666666 363, 967.3333333333334 335, 992 335 C 1019.3333333333334 335, 1046.6666666666667 343, 1074 343 C 1106.6666666666667 343, 1139.3333333333333 363, 1172 363 C 1201.3333333333333 363, 1230.6666666666667 335, 1260 335 C 1276.6666666666667 335, 1293.3333333333333 364, 1310 364 C 1333.6666666666667 364, 1357.3333333333333 363, 1381 363 C 1411.6666666666667 363, 1442.3333333333333 341, 1473 341 C 1503.3333333333333 341, 1533.6666666666667 335, 1564 335 C 1581 335, 1598 342, 1615 342 L 1800 353 L 1800 906 Z"></path><path fill="#004e65" stroke="#004e65" d="M -200 906 L -90 388 C -61.66666666666667 388, -33.33333333333333 370, -5 370 C 17.333333333333332 370, 39.66666666666667 400, 62 400 C 83 400, 104 376, 125 376 C 154.33333333333334 376, 183.66666666666666 398, 213 398 C 240.66666666666666 398, 268.3333333333333 402, 296 402 C 326.3333333333333 402, 356.6666666666667 406, 387 406 C 416.6666666666667 406, 446.3333333333333 370, 476 370 C 497 370, 518 370, 539 370 C 566.3333333333334 370, 593.6666666666666 403, 621 403 C 652.6666666666666 403, 684.3333333333334 405, 716 405 C 736 405, 756 374, 776 374 C 800 374, 824 373, 848 373 C 881 373, 914 406, 947 406 C 967 406, 987 407, 1007 407 C 1034.6666666666667 407, 1062.3333333333333 406, 1090 406 C 1116 406, 1142 405, 1168 405 C 1190.6666666666667 405, 1213.3333333333333 406, 1236 406 C 1265.6666666666667 406, 1295.3333333333333 377, 1325 377 C 1344.3333333333333 377, 1363.6666666666667 400, 1383 400 C 1410.6666666666667 400, 1438.3333333333333 404, 1466 404 C 1487 404, 1508 402, 1529 402 C 1559.3333333333333 402, 1589.6666666666667 373, 1620 373 L 1800 388 L 1800 906 Z"></path><path fill="#00475f" stroke="#00475f" d="M -200 906 L -80 423 C -61 423, -42 439, -23 439 C 1.6666666666666679 439, 26.333333333333332 436, 51 436 C 74 436, 97 435, 120 435 C 151.66666666666666 435, 183.33333333333334 405, 215 405 C 240.33333333333334 405, 265.6666666666667 411, 291 411 C 321.6666666666667 411, 352.3333333333333 434, 383 434 C 400 434, 417 433, 434 433 C 451 433, 468 437, 485 437 C 504.3333333333333 437, 523.6666666666666 411, 543 411 C 572.6666666666666 411, 602.3333333333334 439, 632 439 C 661.6666666666666 439, 691.3333333333334 413, 721 413 C 739.6666666666666 413, 758.3333333333334 412, 777 412 C 799 412, 821 435, 843 435 C 868.6666666666666 435, 894.3333333333334 437, 920 437 C 940.6666666666666 437, 961.3333333333334 441, 982 441 C 1002.3333333333334 441, 1022.6666666666666 413, 1043 413 C 1071.3333333333333 413, 1099.6666666666667 435, 1128 435 C 1147.3333333333333 435, 1166.6666666666667 433, 1186 433 C 1214.3333333333333 433, 1242.6666666666667 439, 1271 439 C 1292 439, 1313 405, 1334 405 C 1360 405, 1386 437, 1412 437 C 1438.6666666666667 437, 1465.3333333333333 409, 1492 409 C 1519 409, 1546 406, 1573 406 C 1594 406, 1615 440, 1636 440 L 1800 423 L 1800 906 Z"></path><path fill="#003f59" stroke="#003f59" d="M -200 906 L -70 458 C -40.33333333333333 458, -10.666666666666668 477, 19 477 C 42.66666666666667 477, 66.33333333333333 469, 90 469 C 108.33333333333333 469, 126.66666666666667 471, 145 471 C 170.33333333333334 471, 195.66666666666666 471, 221 471 C 248 471, 275 472, 302 472 C 334.3333333333333 472, 366.6666666666667 476, 399 476 C 431.6666666666667 476, 464.3333333333333 474, 497 474 C 521 474, 545 444, 569 444 C 588 444, 607 470, 626 470 C 651.6666666666666 470, 677.3333333333334 474, 703 474 C 732 474, 761 442, 790 442 C 822.6666666666666 442, 855.3333333333334 474, 888 474 C 906.3333333333334 474, 924.6666666666666 445, 943 445 C 965.6666666666666 445, 988.3333333333334 476, 1011 476 C 1039 476, 1067 442, 1095 442 C 1120.3333333333333 442, 1145.6666666666667 474, 1171 474 C 1187.6666666666667 474, 1204.3333333333333 470, 1221 470 C 1253.6666666666667 470, 1286.3333333333333 441, 1319 441 C 1337.3333333333333 441, 1355.6666666666667 441, 1374 441 C 1400.6666666666667 441, 1427.3333333333333 469, 1454 469 C 1483.6666666666667 469, 1513.3333333333333 468, 1543 468 C 1576 468, 1609 472, 1642 472 L 1800 458 L 1800 906 Z"></path><path fill="#003852" stroke="#003852" d="M -200 906 L -60 494 C -37.66666666666667 494, -15.333333333333332 476, 7 476 C 35 476, 63 511, 91 511 C 119.33333333333333 511, 147.66666666666666 510, 176 510 C 196.66666666666666 510, 217.33333333333334 508, 238 508 C 255.66666666666666 508, 273.3333333333333 507, 291 507 C 310.3333333333333 507, 329.6666666666667 509, 349 509 C 368.6666666666667 509, 388.3333333333333 478, 408 478 C 434.3333333333333 478, 460.6666666666667 510, 487 510 C 514.3333333333334 510, 541.6666666666666 478, 569 478 C 588.3333333333334 478, 607.6666666666666 479, 627 479 C 647.3333333333334 479, 667.6666666666666 478, 688 478 C 720.6666666666666 478, 753.3333333333334 513, 786 513 C 813.3333333333334 513, 840.6666666666666 509, 868 509 C 886.3333333333334 509, 904.6666666666666 479, 923 479 C 940.3333333333334 479, 957.6666666666666 511, 975 511 C 994 511, 1013 475, 1032 475 C 1063.3333333333333 475, 1094.6666666666667 504, 1126 504 C 1145.3333333333333 504, 1164.6666666666667 513, 1184 513 C 1201.3333333333333 513, 1218.6666666666667 509, 1236 509 C 1265.3333333333333 509, 1294.6666666666667 484, 1324 484 C 1354 484, 1384 506, 1414 506 C 1438.3333333333333 506, 1462.6666666666667 479, 1487 479 C 1519.6666666666667 479, 1552.3333333333333 512, 1585 512 C 1610.3333333333333 512, 1635.6666666666667 510, 1661 510 L 1800 494 L 1800 906 Z"></path><path fill="#00314b" stroke="#00314b" d="M -200 906 L -50 529 C -33.33333333333333 529, -16.666666666666668 515, 0 515 C 31 515, 62 545, 93 545 C 118 545, 143 547, 168 547 C 193 547, 218 516, 243 516 C 261.6666666666667 516, 280.3333333333333 512, 299 512 C 318 512, 337 542, 356 542 C 385 542, 414 545, 443 545 C 470 545, 497 548, 524 548 C 555.3333333333334 548, 586.6666666666666 515, 618 515 C 646.3333333333334 515, 674.6666666666666 519, 703 519 C 728 519, 753 547, 778 547 C 797 547, 816 511, 835 511 C 860.3333333333334 511, 885.6666666666666 539, 911 539 C 930.6666666666666 539, 950.3333333333334 518, 970 518 C 989.6666666666666 518, 1009.3333333333334 514, 1029 514 C 1055 514, 1081 514, 1107 514 C 1140 514, 1173 540, 1206 540 C 1228 540, 1250 518, 1272 518 C 1298.6666666666667 518, 1325.3333333333333 544, 1352 544 C 1377 544, 1402 545, 1427 545 C 1447 545, 1467 547, 1487 547 C 1511.3333333333333 547, 1535.6666666666667 541, 1560 541 C 1577.3333333333333 541, 1594.6666666666667 543, 1612 543 L 1800 529 L 1800 906 Z"></path><path fill="#002a43" stroke="#002a43" d="M -200 906 L -40 564 C -17 564, 6 549, 29 549 C 60 549, 91 552, 122 552 C 153.33333333333334 552, 184.66666666666666 552, 216 552 C 235.33333333333334 552, 254.66666666666666 554, 274 554 C 305.6666666666667 554, 337.3333333333333 546, 369 546 C 401.3333333333333 546, 433.6666666666667 575, 466 575 C 483.6666666666667 575, 501.3333333333333 576, 519 576 C 538 576, 557 578, 576 578 C 603 578, 630 551, 657 551 C 680.3333333333334 551, 703.6666666666666 576, 727 576 C 748.3333333333334 576, 769.6666666666666 551, 791 551 C 820.6666666666666 551, 850.3333333333334 545, 880 545 C 901.6666666666666 545, 923.3333333333334 546, 945 546 C 966.3333333333334 546, 987.6666666666666 550, 1009 550 C 1040 550, 1071 578, 1102 578 C 1132.3333333333333 578, 1162.6666666666667 583, 1193 583 C 1217.6666666666667 583, 1242.3333333333333 546, 1267 546 C 1289.3333333333333 546, 1311.6666666666667 582, 1334 582 C 1361.6666666666667 582, 1389.3333333333333 550, 1417 550 C 1435 550, 1453 547, 1471 547 C 1499.3333333333333 547, 1527.6666666666667 546, 1556 546 C 1585 546, 1614 582, 1643 582 L 1800 564 L 1800 906 Z"></path><path fill="#00233c" stroke="#00233c" d="M -200 906 L -30 600 C -7 600, 16 581, 39 581 C 65 581, 91 585, 117 585 C 134 585, 151 583, 168 583 C 190.33333333333334 583, 212.66666666666666 618, 235 618 C 254 618, 273 587, 292 587 C 316 587, 340 588, 364 588 C 384.3333333333333 588, 404.6666666666667 588, 425 588 C 457.3333333333333 588, 489.6666666666667 582, 522 582 C 538.6666666666666 582, 555.3333333333334 585, 572 585 C 596.6666666666666 585, 621.3333333333334 581, 646 581 C 662.6666666666666 581, 679.3333333333334 584, 696 584 C 717.6666666666666 584, 739.3333333333334 581, 761 581 C 778.6666666666666 581, 796.3333333333334 614, 814 614 C 841.6666666666666 614, 869.3333333333334 590, 897 590 C 918 590, 939 589, 960 589 C 990.6666666666666 589, 1021.3333333333334 588, 1052 588 C 1076.6666666666667 588, 1101.3333333333333 582, 1126 582 C 1145.6666666666667 582, 1165.3333333333333 582, 1185 582 C 1208.6666666666667 582, 1232.3333333333333 581, 1256 581 C 1287 581, 1318 615, 1349 615 C 1380 615, 1411 581, 1442 581 C 1462 581, 1482 587, 1502 587 C 1524.3333333333333 587, 1546.6666666666667 582, 1569 582 C 1599.6666666666667 582, 1630.3333333333333 589, 1661 589 L 1800 600 L 1800 906 Z"></path><path fill="#001c34" stroke="#001c34" d="M -200 906 L -20 635 C 8.333333333333332 635, 36.66666666666667 653, 65 653 C 91.33333333333333 653, 117.66666666666667 648, 144 648 C 167.66666666666666 648, 191.33333333333334 645, 215 645 C 241.33333333333334 645, 267.6666666666667 623, 294 623 C 314.3333333333333 623, 334.6666666666667 651, 355 651 C 383.3333333333333 651, 411.6666666666667 646, 440 646 C 470.3333333333333 646, 500.6666666666667 646, 531 646 C 562 646, 593 647, 624 647 C 651.3333333333334 647, 678.6666666666666 653, 706 653 C 727.6666666666666 653, 749.3333333333334 617, 771 617 C 803.6666666666666 617, 836.3333333333334 651, 869 651 C 894.6666666666666 651, 920.3333333333334 618, 946 618 C 976.6666666666666 618, 1007.3333333333334 621, 1038 621 C 1059.6666666666667 621, 1081.3333333333333 647, 1103 647 C 1122 647, 1141 651, 1160 651 C 1179 651, 1198 616, 1217 616 C 1238.6666666666667 616, 1260.3333333333333 650, 1282 650 C 1305 650, 1328 649, 1351 649 C 1382.3333333333333 649, 1413.6666666666667 647, 1445 647 C 1474.6666666666667 647, 1504.3333333333333 624, 1534 624 C 1562.6666666666667 624, 1591.3333333333333 650, 1620 650 L 1800 635 L 1800 906 Z"></path><path fill="#00162c" stroke="#00162c" d="M -200 906 L -10 670 C 7.666666666666668 670, 25.333333333333332 651, 43 651 C 70 651, 97 682, 124 682 C 151.33333333333334 682, 178.66666666666666 682, 206 682 C 232.66666666666666 682, 259.3333333333333 657, 286 657 C 306.3333333333333 657, 326.6666666666667 660, 347 660 C 365.6666666666667 660, 384.3333333333333 653, 403 653 C 428.6666666666667 653, 454.3333333333333 680, 480 680 C 513 680, 546 660, 579 660 C 596.3333333333334 660, 613.6666666666666 658, 631 658 C 648.6666666666666 658, 666.3333333333334 683, 684 683 C 713.3333333333334 683, 742.6666666666666 686, 772 686 C 796.6666666666666 686, 821.3333333333334 685, 846 685 C 864.6666666666666 685, 883.3333333333334 689, 902 689 C 932.3333333333334 689, 962.6666666666666 685, 993 685 C 1017.3333333333334 685, 1041.6666666666667 689, 1066 689 C 1087 689, 1108 660, 1129 660 C 1152.6666666666667 660, 1176.3333333333333 686, 1200 686 C 1226 686, 1252 685, 1278 685 C 1309.6666666666667 685, 1341.3333333333333 655, 1373 655 C 1405 655, 1437 686, 1469 686 C 1500.3333333333333 686, 1531.6666666666667 658, 1563 658 C 1589 658, 1615 689, 1641 689 L 1800 670 L 1800 906 Z"></path><path fill="#000e24" stroke="#000e24" d="M -200 906 L 0 706 C 25.666666666666668 706, 51.33333333333333 689, 77 689 C 105.33333333333333 689, 133.66666666666666 694, 162 694 C 185.33333333333334 694, 208.66666666666666 695, 232 695 C 258.3333333333333 695, 284.6666666666667 695, 311 695 C 341 695, 371 724, 401 724 C 431 724, 461 690, 491 690 C 507.6666666666667 690, 524.3333333333334 693, 541 693 C 568.3333333333334 693, 595.6666666666666 724, 623 724 C 646 724, 669 694, 692 694 C 712.3333333333334 694, 732.6666666666666 725, 753 725 C 777.3333333333334 725, 801.6666666666666 716, 826 716 C 852.3333333333334 716, 878.6666666666666 690, 905 690 C 927.6666666666666 690, 950.3333333333334 721, 973 721 C 990 721, 1007 695, 1024 695 C 1055 695, 1086 718, 1117 718 C 1145.6666666666667 718, 1174.3333333333333 696, 1203 696 C 1229.3333333333333 696, 1255.6666666666667 723, 1282 723 C 1309.3333333333333 723, 1336.6666666666667 691, 1364 691 C 1387.3333333333333 691, 1410.6666666666667 718, 1434 718 C 1454.6666666666667 718, 1475.3333333333333 722, 1496 722 C 1513.6666666666667 722, 1531.3333333333333 693, 1549 693 C 1572.6666666666667 693, 1596.3333333333333 687, 1620 687 L 1800 706 L 1800 906 Z"></path></svg>