{"asset":{"generator":"Khronos glTF Spline I/O v0.0.1","version":"2.0"},"scenes":[{"nodes":[0]}],"nodes":[{"name":"","children":[1,2,3]},{"name":"calli3d","matrix":[1.6744291685838666,0.043875854266920235,0.6711900418972612,0,-0.4835724171168513,0.08307929208152796,1.2009453882131278,0,-0.0013855649501209014,-1.0542280839546905,0.07237173544147417,0,-3363.635416194901,-445.61690739430514,-71.04065366079271,1],"mesh":0},{"name":"Directional Light","translation":[200,300,300],"rotation":[-0.4062840720729887,0.12301291902225084,-0.2623788760260691,0.8665785595944042],"extensions":{"KHR_lights_punctual":{"light":0}}},{"name":"Personal Camera","camera":0,"translation":[-258.18145699263437,180.7816571811001,949.0312574894546],"rotation":[-0.0899661797402126,-0.13187288484834325,-0.012019117297622284,0.987102410879496]}],"cameras":[{"type":"orthographic","orthographic":{"xmag":1600,"ymag":847,"zfar":100000,"znear":-100000}}],"meshes":[{"primitives":[{"attributes":{"POSITION":0,"NORMAL":1}}]}],"buffers":[{"uri":"data:application/octet-stream;base64,","byteLength":535104}],"bufferViews":[{"buffer":0,"byteOffset":0,"byteLength":267552,"target":34962},{"buffer":0,"byteOffset":267552,"byteLength":267552,"target":34962}],"accessors":[{"bufferView":0,"byteOffset":0,"componentType":5126,"count":22296,"type":"VEC3","min":[-0.29577013850212097,-33,-1296.9718017578125],"max":[3690.7041015625,33,-0.9717963337898254]},{"bufferView":1,"byteOffset":0,"componentType":5126,"count":22296,"type":"VEC3","min":[-1,-1,-1],"max":[1,1,1]}],"extensions":{"KHR_lights_punctual":{"lights":[{"type":"directional","name":"Directional Light","color":[1,1,1],"intensity":0.7}]}},"extensionsUsed":["KHR_lights_punctual"]}